<svg xmlns="http://www.w3.org/2000/svg" xmlns:xlink="http://www.w3.org/1999/xlink" width="500" zoomAndPan="magnify" viewBox="0 0 375 131.999998" height="176" preserveAspectRatio="xMidYMid meet" version="1.2"><defs><clipPath id="ff04507f85"><path d="M 45.269531 44.109375 L 88.257812 44.109375 L 88.257812 88.609375 L 45.269531 88.609375 Z M 45.269531 44.109375 "/></clipPath><clipPath id="85c27fcc24"><path d="M 55.769531 44.109375 L 77.757812 44.109375 C 83.558594 44.109375 88.257812 48.8125 88.257812 54.609375 L 88.257812 78.046875 C 88.257812 83.847656 83.558594 88.546875 77.757812 88.546875 L 55.769531 88.546875 C 49.972656 88.546875 45.269531 83.847656 45.269531 78.046875 L 45.269531 54.609375 C 45.269531 48.8125 49.972656 44.109375 55.769531 44.109375 Z M 55.769531 44.109375 "/></clipPath><clipPath id="3a0d3a1829"><path d="M 45.269531 44.109375 L 88.019531 44.109375 L 88.019531 88.359375 L 45.269531 88.359375 Z M 45.269531 44.109375 "/></clipPath><clipPath id="61146d829f"><path d="M 55.714844 44.109375 L 77.578125 44.109375 C 83.347656 44.109375 88.019531 48.785156 88.019531 54.550781 L 88.019531 77.863281 C 88.019531 83.628906 83.347656 88.304688 77.578125 88.304688 L 55.714844 88.304688 C 49.945312 88.304688 45.269531 83.628906 45.269531 77.863281 L 45.269531 54.550781 C 45.269531 48.785156 49.945312 44.109375 55.714844 44.109375 Z M 55.714844 44.109375 "/></clipPath><clipPath id="6296d840b0"><path d="M 2.285156 0 L 45.269531 0 L 45.269531 44.5 L 2.285156 44.5 Z M 2.285156 0 "/></clipPath><clipPath id="0f994a90ad"><path d="M 12.785156 0 L 34.769531 0 C 40.570312 0 45.269531 4.699219 45.269531 10.5 L 45.269531 33.9375 C 45.269531 39.738281 40.570312 44.4375 34.769531 44.4375 L 12.785156 44.4375 C 6.984375 44.4375 2.285156 39.738281 2.285156 33.9375 L 2.285156 10.5 C 2.285156 4.699219 6.984375 0 12.785156 0 Z M 12.785156 0 "/></clipPath><clipPath id="3913fc1d0f"><path d="M 2.285156 0 L 45.035156 0 L 45.035156 44.25 L 2.285156 44.25 Z M 2.285156 0 "/></clipPath><clipPath id="849e857c33"><path d="M 12.726562 0 L 34.589844 0 C 40.359375 0 45.035156 4.675781 45.035156 10.441406 L 45.035156 33.753906 C 45.035156 39.519531 40.359375 44.195312 34.589844 44.195312 L 12.726562 44.195312 C 6.957031 44.195312 2.285156 39.519531 2.285156 33.753906 L 2.285156 10.441406 C 2.285156 4.675781 6.957031 0 12.726562 0 Z M 12.726562 0 "/></clipPath><clipPath id="74935e2481"><path d="M 45.269531 0 L 88.257812 0 L 88.257812 44.5 L 45.269531 44.5 Z M 45.269531 0 "/></clipPath><clipPath id="6beac0b42f"><path d="M 55.769531 0 L 77.757812 0 C 83.558594 0 88.257812 4.699219 88.257812 10.5 L 88.257812 33.9375 C 88.257812 39.738281 83.558594 44.4375 77.757812 44.4375 L 55.769531 44.4375 C 49.972656 44.4375 45.269531 39.738281 45.269531 33.9375 L 45.269531 10.5 C 45.269531 4.699219 49.972656 0 55.769531 0 Z M 55.769531 0 "/></clipPath><clipPath id="906032f32f"><path d="M 45.269531 0 L 88.019531 0 L 88.019531 44.25 L 45.269531 44.25 Z M 45.269531 0 "/></clipPath><clipPath id="c932a048c2"><path d="M 55.714844 0 L 77.578125 0 C 83.347656 0 88.019531 4.675781 88.019531 10.441406 L 88.019531 33.753906 C 88.019531 39.519531 83.347656 44.195312 77.578125 44.195312 L 55.714844 44.195312 C 49.945312 44.195312 45.269531 39.519531 45.269531 33.753906 L 45.269531 10.441406 C 45.269531 4.675781 49.945312 0 55.714844 0 Z M 55.714844 0 "/></clipPath><clipPath id="5eb4a2b26f"><path d="M 88.257812 0 L 131.246094 0 L 131.246094 44.5 L 88.257812 44.5 Z M 88.257812 0 "/></clipPath><clipPath id="5d004d7360"><path d="M 98.757812 0 L 120.746094 0 C 126.542969 0 131.246094 4.699219 131.246094 10.5 L 131.246094 33.9375 C 131.246094 39.738281 126.542969 44.4375 120.746094 44.4375 L 98.757812 44.4375 C 92.960938 44.4375 88.257812 39.738281 88.257812 33.9375 L 88.257812 10.5 C 88.257812 4.699219 92.960938 0 98.757812 0 Z M 98.757812 0 "/></clipPath><clipPath id="21dae3909c"><path d="M 88.257812 0 L 131.007812 0 L 131.007812 44.25 L 88.257812 44.25 Z M 88.257812 0 "/></clipPath><clipPath id="fee6559b4c"><path d="M 98.699219 0 L 120.566406 0 C 126.332031 0 131.007812 4.675781 131.007812 10.441406 L 131.007812 33.753906 C 131.007812 39.519531 126.332031 44.195312 120.566406 44.195312 L 98.699219 44.195312 C 92.933594 44.195312 88.257812 39.519531 88.257812 33.753906 L 88.257812 10.441406 C 88.257812 4.675781 92.933594 0 98.699219 0 Z M 98.699219 0 "/></clipPath><clipPath id="b47da003dc"><path d="M 88.257812 44.4375 L 131.246094 44.4375 L 131.246094 88.265625 L 88.257812 88.265625 Z M 88.257812 44.4375 "/></clipPath><clipPath id="af866a7357"><path d="M 98.757812 44.4375 L 120.746094 44.4375 C 126.542969 44.4375 131.246094 49.140625 131.246094 54.9375 L 131.246094 77.71875 C 131.246094 83.519531 126.542969 88.21875 120.746094 88.21875 L 98.757812 88.21875 C 92.960938 88.21875 88.257812 83.519531 88.257812 77.71875 L 88.257812 54.9375 C 88.257812 49.140625 92.960938 44.4375 98.757812 44.4375 Z M 98.757812 44.4375 "/></clipPath><clipPath id="1fa3da2b1a"><path d="M 88.261719 44.4375 L 131 44.4375 L 131 87.9375 L 88.261719 87.9375 Z M 88.261719 44.4375 "/></clipPath><clipPath id="348ae7cc4d"><path d="M 98.695312 44.4375 L 120.539062 44.4375 C 126.304688 44.4375 130.972656 49.109375 130.972656 54.871094 L 130.972656 77.507812 C 130.972656 83.269531 126.304688 87.9375 120.539062 87.9375 L 98.695312 87.9375 C 92.933594 87.9375 88.261719 83.269531 88.261719 77.507812 L 88.261719 54.871094 C 88.261719 49.109375 92.933594 44.4375 98.695312 44.4375 Z M 98.695312 44.4375 "/></clipPath><clipPath id="23693227b0"><path d="M 88.257812 88.21875 L 131.246094 88.21875 L 131.246094 132 L 88.257812 132 Z M 88.257812 88.21875 "/></clipPath><clipPath id="56ca1bc58f"><path d="M 98.757812 88.21875 L 120.746094 88.21875 C 126.542969 88.21875 131.246094 92.921875 131.246094 98.71875 L 131.246094 121.5 C 131.246094 127.300781 126.542969 132 120.746094 132 L 98.757812 132 C 92.960938 132 88.257812 127.300781 88.257812 121.5 L 88.257812 98.71875 C 88.257812 92.921875 92.960938 88.21875 98.757812 88.21875 Z M 98.757812 88.21875 "/></clipPath><clipPath id="3f2836806b"><path d="M 88.261719 88.21875 L 131 88.21875 L 131 131.71875 L 88.261719 131.71875 Z M 88.261719 88.21875 "/></clipPath><clipPath id="e85d12fb91"><path d="M 98.695312 88.21875 L 120.539062 88.21875 C 126.304688 88.21875 130.972656 92.890625 130.972656 98.652344 L 130.972656 121.285156 C 130.972656 127.046875 126.304688 131.71875 120.539062 131.71875 L 98.695312 131.71875 C 92.933594 131.71875 88.261719 127.046875 88.261719 121.285156 L 88.261719 98.652344 C 88.261719 92.890625 92.933594 88.21875 98.695312 88.21875 Z M 98.695312 88.21875 "/></clipPath><clipPath id="a0cfee8350"><path d="M 45.269531 88.21875 L 88.257812 88.21875 L 88.257812 132 L 45.269531 132 Z M 45.269531 88.21875 "/></clipPath><clipPath id="4ce1b5ff9a"><path d="M 55.769531 88.21875 L 77.757812 88.21875 C 83.558594 88.21875 88.257812 92.921875 88.257812 98.71875 L 88.257812 121.5 C 88.257812 127.300781 83.558594 132 77.757812 132 L 55.769531 132 C 49.972656 132 45.269531 127.300781 45.269531 121.5 L 45.269531 98.71875 C 45.269531 92.921875 49.972656 88.21875 55.769531 88.21875 Z M 55.769531 88.21875 "/></clipPath><clipPath id="b1acac8b1e"><path d="M 45.273438 88.21875 L 88 88.21875 L 88 131.71875 L 45.273438 131.71875 Z M 45.273438 88.21875 "/></clipPath><clipPath id="673c830e8a"><path d="M 55.707031 88.21875 L 77.554688 88.21875 C 83.316406 88.21875 87.988281 92.890625 87.988281 98.652344 L 87.988281 121.285156 C 87.988281 127.046875 83.316406 131.71875 77.554688 131.71875 L 55.707031 131.71875 C 49.945312 131.71875 45.273438 127.046875 45.273438 121.285156 L 45.273438 98.652344 C 45.273438 92.890625 49.945312 88.21875 55.707031 88.21875 Z M 55.707031 88.21875 "/></clipPath><clipPath id="8ed5bd1a35"><path d="M 2.285156 87.5625 L 45.269531 87.5625 L 45.269531 132 L 2.285156 132 Z M 2.285156 87.5625 "/></clipPath><clipPath id="2e7eceb469"><path d="M 12.785156 87.5625 L 34.769531 87.5625 C 40.570312 87.5625 45.269531 92.261719 45.269531 98.0625 L 45.269531 121.5 C 45.269531 127.300781 40.570312 132 34.769531 132 L 12.785156 132 C 6.984375 132 2.285156 127.300781 2.285156 121.5 L 2.285156 98.0625 C 2.285156 92.261719 6.984375 87.5625 12.785156 87.5625 Z M 12.785156 87.5625 "/></clipPath><clipPath id="d4f439c1c6"><path d="M 2.285156 87.5625 L 45.035156 87.5625 L 45.035156 131.8125 L 2.285156 131.8125 Z M 2.285156 87.5625 "/></clipPath><clipPath id="8485b08497"><path d="M 12.726562 87.5625 L 34.589844 87.5625 C 40.359375 87.5625 45.035156 92.238281 45.035156 98.003906 L 45.035156 121.3125 C 45.035156 127.082031 40.359375 131.753906 34.589844 131.753906 L 12.726562 131.753906 C 6.957031 131.753906 2.285156 127.082031 2.285156 121.3125 L 2.285156 98.003906 C 2.285156 92.238281 6.957031 87.5625 12.726562 87.5625 Z M 12.726562 87.5625 "/></clipPath><clipPath id="63b2184948"><path d="M 2.285156 43.78125 L 45.269531 43.78125 L 45.269531 87.605469 L 2.285156 87.605469 Z M 2.285156 43.78125 "/></clipPath><clipPath id="649b0d71ab"><path d="M 12.785156 43.78125 L 34.769531 43.78125 C 40.570312 43.78125 45.269531 48.480469 45.269531 54.28125 L 45.269531 77.0625 C 45.269531 82.859375 40.570312 87.5625 34.769531 87.5625 L 12.785156 87.5625 C 6.984375 87.5625 2.285156 82.859375 2.285156 77.0625 L 2.285156 54.28125 C 2.285156 48.480469 6.984375 43.78125 12.785156 43.78125 Z M 12.785156 43.78125 "/></clipPath><clipPath id="08053c143b"><path d="M 2.289062 43.78125 L 45 43.78125 L 45 87.28125 L 2.289062 87.28125 Z M 2.289062 43.78125 "/></clipPath><clipPath id="676c8f9ac9"><path d="M 12.71875 43.78125 L 34.566406 43.78125 C 40.328125 43.78125 45 48.453125 45 54.214844 L 45 76.847656 C 45 82.609375 40.328125 87.28125 34.566406 87.28125 L 12.71875 87.28125 C 6.957031 87.28125 2.289062 82.609375 2.289062 76.847656 L 2.289062 54.214844 C 2.289062 48.453125 6.957031 43.78125 12.71875 43.78125 Z M 12.71875 43.78125 "/></clipPath></defs><g id="cb3c63dd1a"><g style="fill:#000000;fill-opacity:1;"><g transform="translate(137.241236, 60.749999)"><path style="stroke:none" d="M 8.953125 0 C 8.640625 0 8.441406 -0.140625 8.359375 -0.421875 L 1.046875 -28.859375 L 1.046875 -29.015625 C 1.046875 -29.273438 1.203125 -29.40625 1.515625 -29.40625 L 6.84375 -29.40625 C 7.15625 -29.40625 7.335938 -29.25 7.390625 -28.9375 L 11.640625 -9.40625 C 11.660156 -9.289062 11.695312 -9.234375 11.75 -9.234375 C 11.8125 -9.234375 11.859375 -9.289062 11.890625 -9.40625 L 16.09375 -28.9375 C 16.144531 -29.25 16.320312 -29.40625 16.625 -29.40625 L 21.796875 -29.40625 C 22.191406 -29.40625 22.347656 -29.222656 22.265625 -28.859375 L 14.875 -0.421875 C 14.78125 -0.140625 14.582031 0 14.28125 0 Z M 8.953125 0 "/></g><g transform="translate(160.551234, 60.749999)"><path style="stroke:none" d="M 4.953125 -24.03125 C 4.003906 -24.03125 3.222656 -24.34375 2.609375 -24.96875 C 1.992188 -25.59375 1.6875 -26.382812 1.6875 -27.34375 C 1.6875 -28.320312 1.984375 -29.117188 2.578125 -29.734375 C 3.179688 -30.347656 3.972656 -30.65625 4.953125 -30.65625 C 5.929688 -30.65625 6.726562 -30.347656 7.34375 -29.734375 C 7.96875 -29.117188 8.28125 -28.320312 8.28125 -27.34375 C 8.28125 -26.382812 7.960938 -25.59375 7.328125 -24.96875 C 6.703125 -24.34375 5.910156 -24.03125 4.953125 -24.03125 Z M 2.515625 0 C 2.378906 0 2.257812 -0.046875 2.15625 -0.140625 C 2.0625 -0.242188 2.015625 -0.363281 2.015625 -0.5 L 2.015625 -21.078125 C 2.015625 -21.222656 2.0625 -21.34375 2.15625 -21.4375 C 2.257812 -21.539062 2.378906 -21.59375 2.515625 -21.59375 L 7.4375 -21.59375 C 7.570312 -21.59375 7.6875 -21.539062 7.78125 -21.4375 C 7.882812 -21.34375 7.9375 -21.222656 7.9375 -21.078125 L 7.9375 -0.5 C 7.9375 -0.363281 7.882812 -0.242188 7.78125 -0.140625 C 7.6875 -0.046875 7.570312 0 7.4375 0 Z M 2.515625 0 "/></g></g><g style="fill:#000000;fill-opacity:1;"><g transform="translate(170.505238, 60.749999)"><path style="stroke:none" d="M 19.234375 -14.0625 C 19.316406 -13.144531 19.359375 -12.125 19.359375 -11 L 19.3125 -9.359375 C 19.3125 -9.023438 19.144531 -8.859375 18.8125 -8.859375 L 7.6875 -8.859375 C 7.539062 -8.859375 7.46875 -8.789062 7.46875 -8.65625 C 7.53125 -8.007812 7.585938 -7.53125 7.640625 -7.21875 C 7.785156 -6.4375 8.128906 -5.820312 8.671875 -5.375 C 9.210938 -4.925781 9.890625 -4.703125 10.703125 -4.703125 C 12.078125 -4.734375 13.03125 -5.363281 13.5625 -6.59375 C 13.707031 -6.875 13.921875 -6.988281 14.203125 -6.9375 L 18.640625 -6.046875 C 18.984375 -5.960938 19.097656 -5.753906 18.984375 -5.421875 C 18.367188 -3.566406 17.351562 -2.140625 15.9375 -1.140625 C 14.519531 -0.148438 12.773438 0.34375 10.703125 0.34375 C 8.210938 0.34375 6.234375 -0.222656 4.765625 -1.359375 C 3.296875 -2.492188 2.335938 -4.128906 1.890625 -6.265625 C 1.640625 -7.410156 1.515625 -9.160156 1.515625 -11.515625 C 1.515625 -12.859375 1.597656 -13.988281 1.765625 -14.90625 C 2.066406 -17.039062 2.988281 -18.742188 4.53125 -20.015625 C 6.070312 -21.285156 8.019531 -21.921875 10.375 -21.921875 C 12.925781 -21.921875 15 -21.195312 16.59375 -19.75 C 18.1875 -18.3125 19.066406 -16.414062 19.234375 -14.0625 Z M 10.421875 -16.84375 C 9.660156 -16.84375 9.035156 -16.617188 8.546875 -16.171875 C 8.054688 -15.722656 7.742188 -15.109375 7.609375 -14.328125 C 7.515625 -13.816406 7.46875 -13.28125 7.46875 -12.71875 C 7.46875 -12.582031 7.539062 -12.515625 7.6875 -12.515625 L 13.140625 -12.515625 C 13.285156 -12.515625 13.359375 -12.582031 13.359375 -12.71875 C 13.359375 -13.28125 13.316406 -13.816406 13.234375 -14.328125 C 13.117188 -15.078125 12.804688 -15.679688 12.296875 -16.140625 C 11.796875 -16.609375 11.171875 -16.84375 10.421875 -16.84375 Z M 10.421875 -16.84375 "/></g></g><g style="fill:#000000;fill-opacity:1;"><g transform="translate(190.875239, 60.749999)"><path style="stroke:none" d="M 13.015625 -17.640625 C 13.015625 -17.503906 12.960938 -17.382812 12.859375 -17.28125 C 12.765625 -17.1875 12.648438 -17.140625 12.515625 -17.140625 L 9.28125 -17.140625 C 9.144531 -17.140625 9.078125 -17.066406 9.078125 -16.921875 L 9.078125 -7.46875 C 9.078125 -6.601562 9.25 -5.984375 9.59375 -5.609375 C 9.945312 -5.234375 10.488281 -5.054688 11.21875 -5.078125 L 12.046875 -5.078125 C 12.191406 -5.078125 12.3125 -5.023438 12.40625 -4.921875 C 12.507812 -4.828125 12.5625 -4.710938 12.5625 -4.578125 L 12.5625 -0.5 C 12.5625 -0.164062 12.390625 0 12.046875 0 C 11.578125 0.03125 10.878906 0.046875 9.953125 0.046875 C 7.742188 0.046875 6.097656 -0.316406 5.015625 -1.046875 C 3.941406 -1.773438 3.40625 -3.148438 3.40625 -5.171875 L 3.40625 -16.921875 C 3.40625 -17.066406 3.332031 -17.140625 3.1875 -17.140625 L 1.265625 -17.140625 C 1.117188 -17.140625 0.992188 -17.1875 0.890625 -17.28125 C 0.796875 -17.382812 0.75 -17.503906 0.75 -17.640625 L 0.75 -21.078125 C 0.75 -21.222656 0.796875 -21.34375 0.890625 -21.4375 C 0.992188 -21.539062 1.117188 -21.59375 1.265625 -21.59375 L 3.1875 -21.59375 C 3.332031 -21.59375 3.40625 -21.660156 3.40625 -21.796875 L 3.40625 -26.625 C 3.40625 -26.769531 3.453125 -26.890625 3.546875 -26.984375 C 3.648438 -27.078125 3.769531 -27.125 3.90625 -27.125 L 8.5625 -27.125 C 8.707031 -27.125 8.828125 -27.078125 8.921875 -26.984375 C 9.023438 -26.890625 9.078125 -26.769531 9.078125 -26.625 L 9.078125 -21.796875 C 9.078125 -21.660156 9.144531 -21.59375 9.28125 -21.59375 L 12.515625 -21.59375 C 12.648438 -21.59375 12.765625 -21.539062 12.859375 -21.4375 C 12.960938 -21.34375 13.015625 -21.222656 13.015625 -21.078125 Z M 13.015625 -17.640625 "/></g></g><g style="fill:#000000;fill-opacity:1;"><g transform="translate(204.945235, 60.749999)"><path style="stroke:none" d="M 12.5625 -21.921875 C 14.601562 -21.921875 16.203125 -21.269531 17.359375 -19.96875 C 18.523438 -18.664062 19.109375 -16.851562 19.109375 -14.53125 L 19.109375 -0.5 C 19.109375 -0.363281 19.054688 -0.242188 18.953125 -0.140625 C 18.859375 -0.046875 18.742188 0 18.609375 0 L 13.6875 0 C 13.550781 0 13.429688 -0.046875 13.328125 -0.140625 C 13.234375 -0.242188 13.1875 -0.363281 13.1875 -0.5 L 13.1875 -13.6875 C 13.1875 -14.664062 12.945312 -15.4375 12.46875 -16 C 12 -16.5625 11.359375 -16.84375 10.546875 -16.84375 C 9.703125 -16.84375 9.035156 -16.554688 8.546875 -15.984375 C 8.054688 -15.410156 7.8125 -14.632812 7.8125 -13.65625 L 7.8125 -0.5 C 7.8125 -0.363281 7.757812 -0.242188 7.65625 -0.140625 C 7.5625 -0.046875 7.445312 0 7.3125 0 L 2.390625 0 C 2.253906 0 2.132812 -0.046875 2.03125 -0.140625 C 1.9375 -0.242188 1.890625 -0.363281 1.890625 -0.5 L 1.890625 -21.078125 C 1.890625 -21.222656 1.9375 -21.34375 2.03125 -21.4375 C 2.132812 -21.539062 2.253906 -21.59375 2.390625 -21.59375 L 7.3125 -21.59375 C 7.445312 -21.59375 7.5625 -21.539062 7.65625 -21.4375 C 7.757812 -21.34375 7.8125 -21.222656 7.8125 -21.078125 L 7.8125 -19.90625 C 7.8125 -19.820312 7.835938 -19.769531 7.890625 -19.75 C 7.953125 -19.738281 8.023438 -19.789062 8.109375 -19.90625 C 9.117188 -21.25 10.601562 -21.921875 12.5625 -21.921875 Z M 12.5625 -21.921875 "/></g><g transform="translate(225.819234, 60.749999)"><path style="stroke:none" d="M 10.125 -21.921875 C 11.800781 -21.921875 13.296875 -21.617188 14.609375 -21.015625 C 15.929688 -20.421875 16.960938 -19.582031 17.703125 -18.5 C 18.441406 -17.425781 18.8125 -16.203125 18.8125 -14.828125 L 18.8125 -0.5 C 18.8125 -0.363281 18.757812 -0.242188 18.65625 -0.140625 C 18.5625 -0.046875 18.445312 0 18.3125 0 L 13.390625 0 C 13.253906 0 13.132812 -0.046875 13.03125 -0.140625 C 12.9375 -0.242188 12.890625 -0.363281 12.890625 -0.5 L 12.890625 -1.6875 C 12.890625 -1.769531 12.859375 -1.820312 12.796875 -1.84375 C 12.742188 -1.875 12.691406 -1.847656 12.640625 -1.765625 C 11.578125 -0.359375 9.925781 0.34375 7.6875 0.34375 C 5.78125 0.34375 4.191406 -0.144531 2.921875 -1.125 C 1.648438 -2.113281 1.015625 -3.753906 1.015625 -6.046875 C 1.015625 -10.609375 3.867188 -12.890625 9.578125 -12.890625 L 12.6875 -12.890625 C 12.820312 -12.890625 12.890625 -12.960938 12.890625 -13.109375 L 12.890625 -14.0625 C 12.890625 -14.90625 12.644531 -15.578125 12.15625 -16.078125 C 11.664062 -16.585938 11 -16.84375 10.15625 -16.84375 C 9.488281 -16.84375 8.929688 -16.6875 8.484375 -16.375 C 8.035156 -16.070312 7.753906 -15.65625 7.640625 -15.125 C 7.554688 -14.84375 7.363281 -14.703125 7.0625 -14.703125 L 1.96875 -15 C 1.832031 -15 1.710938 -15.039062 1.609375 -15.125 C 1.515625 -15.207031 1.484375 -15.316406 1.515625 -15.453125 C 1.679688 -17.390625 2.554688 -18.953125 4.140625 -20.140625 C 5.722656 -21.328125 7.71875 -21.921875 10.125 -21.921875 Z M 9.453125 -4.15625 C 10.398438 -4.15625 11.207031 -4.421875 11.875 -4.953125 C 12.550781 -5.484375 12.890625 -6.1875 12.890625 -7.0625 L 12.890625 -8.8125 C 12.890625 -8.957031 12.820312 -9.03125 12.6875 -9.03125 L 10.328125 -9.03125 C 9.296875 -9.03125 8.484375 -8.804688 7.890625 -8.359375 C 7.304688 -7.910156 7.015625 -7.265625 7.015625 -6.421875 C 7.015625 -5.691406 7.238281 -5.128906 7.6875 -4.734375 C 8.132812 -4.347656 8.722656 -4.15625 9.453125 -4.15625 Z M 9.453125 -4.15625 "/></g><g transform="translate(246.273232, 60.749999)"><path style="stroke:none" d="M 23.6875 -21.921875 C 25.726562 -21.921875 27.285156 -21.269531 28.359375 -19.96875 C 29.441406 -18.664062 29.984375 -16.835938 29.984375 -14.484375 L 29.984375 -0.5 C 29.984375 -0.363281 29.929688 -0.242188 29.828125 -0.140625 C 29.734375 -0.046875 29.617188 0 29.484375 0 L 24.609375 0 C 24.472656 0 24.351562 -0.046875 24.25 -0.140625 C 24.15625 -0.242188 24.109375 -0.363281 24.109375 -0.5 L 24.109375 -13.65625 C 24.109375 -14.632812 23.875 -15.410156 23.40625 -15.984375 C 22.945312 -16.554688 22.328125 -16.84375 21.546875 -16.84375 C 20.734375 -16.84375 20.085938 -16.554688 19.609375 -15.984375 C 19.140625 -15.410156 18.90625 -14.644531 18.90625 -13.6875 L 18.90625 -0.5 C 18.90625 -0.363281 18.851562 -0.242188 18.75 -0.140625 C 18.65625 -0.046875 18.535156 0 18.390625 0 L 13.53125 0 C 13.382812 0 13.257812 -0.046875 13.15625 -0.140625 C 13.0625 -0.242188 13.015625 -0.363281 13.015625 -0.5 L 13.015625 -13.65625 C 13.015625 -14.632812 12.773438 -15.410156 12.296875 -15.984375 C 11.828125 -16.554688 11.203125 -16.84375 10.421875 -16.84375 C 9.609375 -16.84375 8.960938 -16.554688 8.484375 -15.984375 C 8.003906 -15.410156 7.765625 -14.644531 7.765625 -13.6875 L 7.765625 -0.5 C 7.765625 -0.363281 7.710938 -0.242188 7.609375 -0.140625 C 7.515625 -0.046875 7.398438 0 7.265625 0 L 2.390625 0 C 2.253906 0 2.132812 -0.046875 2.03125 -0.140625 C 1.9375 -0.242188 1.890625 -0.363281 1.890625 -0.5 L 1.890625 -21.078125 C 1.890625 -21.222656 1.9375 -21.34375 2.03125 -21.4375 C 2.132812 -21.539062 2.253906 -21.59375 2.390625 -21.59375 L 7.265625 -21.59375 C 7.398438 -21.59375 7.515625 -21.539062 7.609375 -21.4375 C 7.710938 -21.34375 7.765625 -21.222656 7.765625 -21.078125 L 7.765625 -19.984375 C 7.765625 -19.898438 7.789062 -19.84375 7.84375 -19.8125 C 7.90625 -19.789062 7.960938 -19.820312 8.015625 -19.90625 C 8.609375 -20.601562 9.296875 -21.113281 10.078125 -21.4375 C 10.859375 -21.757812 11.695312 -21.921875 12.59375 -21.921875 C 13.851562 -21.921875 14.9375 -21.660156 15.84375 -21.140625 C 16.757812 -20.628906 17.46875 -19.882812 17.96875 -18.90625 C 18 -18.84375 18.039062 -18.816406 18.09375 -18.828125 C 18.15625 -18.847656 18.210938 -18.898438 18.265625 -18.984375 C 18.878906 -20.015625 19.660156 -20.757812 20.609375 -21.21875 C 21.566406 -21.6875 22.59375 -21.921875 23.6875 -21.921875 Z M 23.6875 -21.921875 "/></g><g transform="translate(277.983231, 60.749999)"><path style="stroke:none" d=""/></g><g transform="translate(286.38323, 60.749999)"><path style="stroke:none" d="M 11.34375 0.34375 C 9.4375 0.34375 7.753906 -0.0351562 6.296875 -0.796875 C 4.835938 -1.554688 3.707031 -2.632812 2.90625 -4.03125 C 2.113281 -5.425781 1.71875 -7.050781 1.71875 -8.90625 L 1.71875 -20.578125 C 1.71875 -22.398438 2.113281 -24.003906 2.90625 -25.390625 C 3.707031 -26.773438 4.835938 -27.84375 6.296875 -28.59375 C 7.753906 -29.351562 9.4375 -29.734375 11.34375 -29.734375 C 13.25 -29.734375 14.925781 -29.363281 16.375 -28.625 C 17.832031 -27.882812 18.957031 -26.84375 19.75 -25.5 C 20.550781 -24.15625 20.953125 -22.585938 20.953125 -20.796875 L 20.953125 -20.578125 C 20.953125 -20.441406 20.898438 -20.316406 20.796875 -20.203125 C 20.703125 -20.085938 20.585938 -20.03125 20.453125 -20.03125 L 15.546875 -19.828125 C 15.203125 -19.828125 15.03125 -19.976562 15.03125 -20.28125 L 15.03125 -20.828125 C 15.03125 -21.972656 14.691406 -22.894531 14.015625 -23.59375 C 13.347656 -24.300781 12.457031 -24.65625 11.34375 -24.65625 C 10.21875 -24.65625 9.316406 -24.300781 8.640625 -23.59375 C 7.972656 -22.894531 7.640625 -21.972656 7.640625 -20.828125 L 7.640625 -8.53125 C 7.640625 -7.375 7.972656 -6.453125 8.640625 -5.765625 C 9.316406 -5.085938 10.21875 -4.75 11.34375 -4.75 C 12.457031 -4.75 13.347656 -5.085938 14.015625 -5.765625 C 14.691406 -6.453125 15.03125 -7.375 15.03125 -8.53125 L 15.03125 -9.078125 C 15.03125 -9.378906 15.203125 -9.53125 15.546875 -9.53125 L 20.453125 -9.328125 C 20.585938 -9.328125 20.703125 -9.273438 20.796875 -9.171875 C 20.898438 -9.078125 20.953125 -8.957031 20.953125 -8.8125 L 20.953125 -8.6875 C 20.953125 -6.894531 20.550781 -5.3125 19.75 -3.9375 C 18.957031 -2.570312 17.832031 -1.515625 16.375 -0.765625 C 14.925781 -0.0234375 13.25 0.34375 11.34375 0.34375 Z M 11.34375 0.34375 "/></g></g><g style="fill:#000000;fill-opacity:1;"><g transform="translate(308.895222, 60.749999)"><path style="stroke:none" d="M 13.015625 -21.078125 C 13.015625 -21.222656 13.0625 -21.34375 13.15625 -21.4375 C 13.257812 -21.539062 13.382812 -21.59375 13.53125 -21.59375 L 18.4375 -21.59375 C 18.570312 -21.59375 18.6875 -21.539062 18.78125 -21.4375 C 18.882812 -21.34375 18.9375 -21.222656 18.9375 -21.078125 L 18.9375 -0.5 C 18.9375 -0.363281 18.882812 -0.242188 18.78125 -0.140625 C 18.6875 -0.046875 18.570312 0 18.4375 0 L 13.53125 0 C 13.382812 0 13.257812 -0.046875 13.15625 -0.140625 C 13.0625 -0.242188 13.015625 -0.363281 13.015625 -0.5 L 13.015625 -1.546875 C 13.015625 -1.640625 12.988281 -1.691406 12.9375 -1.703125 C 12.882812 -1.710938 12.828125 -1.691406 12.765625 -1.640625 C 11.816406 -0.347656 10.320312 0.296875 8.28125 0.296875 C 6.375 0.296875 4.800781 -0.273438 3.5625 -1.421875 C 2.332031 -2.578125 1.71875 -4.273438 1.71875 -6.515625 L 1.71875 -21.078125 C 1.71875 -21.222656 1.765625 -21.34375 1.859375 -21.4375 C 1.960938 -21.539062 2.082031 -21.59375 2.21875 -21.59375 L 7.140625 -21.59375 C 7.273438 -21.59375 7.390625 -21.539062 7.484375 -21.4375 C 7.585938 -21.34375 7.640625 -21.222656 7.640625 -21.078125 L 7.640625 -7.890625 C 7.640625 -6.910156 7.867188 -6.140625 8.328125 -5.578125 C 8.796875 -5.023438 9.453125 -4.75 10.296875 -4.75 C 11.128906 -4.75 11.789062 -5.039062 12.28125 -5.625 C 12.769531 -6.21875 13.015625 -7.003906 13.015625 -7.984375 Z M 13.015625 -21.078125 "/></g></g><g style="fill:#000000;fill-opacity:1;"><g transform="translate(329.727233, 60.749999)"><path style="stroke:none" d="M 19.15625 -15.40625 C 19.40625 -14.175781 19.53125 -12.707031 19.53125 -11 C 19.53125 -9.125 19.390625 -7.570312 19.109375 -6.34375 C 18.179688 -1.882812 16 0.34375 12.5625 0.34375 C 10.625 0.34375 9.140625 -0.257812 8.109375 -1.46875 C 8.046875 -1.550781 7.988281 -1.578125 7.9375 -1.546875 C 7.882812 -1.523438 7.859375 -1.472656 7.859375 -1.390625 L 7.859375 -0.5 C 7.859375 -0.363281 7.804688 -0.242188 7.703125 -0.140625 C 7.609375 -0.046875 7.488281 0 7.34375 0 L 2.4375 0 C 2.289062 0 2.171875 -0.046875 2.078125 -0.140625 C 1.984375 -0.242188 1.9375 -0.363281 1.9375 -0.5 L 1.9375 -28.890625 C 1.9375 -29.035156 1.984375 -29.15625 2.078125 -29.25 C 2.171875 -29.351562 2.289062 -29.40625 2.4375 -29.40625 L 7.34375 -29.40625 C 7.488281 -29.40625 7.609375 -29.351562 7.703125 -29.25 C 7.804688 -29.15625 7.859375 -29.035156 7.859375 -28.890625 L 7.859375 -20.28125 C 7.859375 -20.195312 7.882812 -20.140625 7.9375 -20.109375 C 7.988281 -20.085938 8.046875 -20.117188 8.109375 -20.203125 C 8.640625 -20.816406 9.257812 -21.253906 9.96875 -21.515625 C 10.6875 -21.785156 11.519531 -21.921875 12.46875 -21.921875 C 14.289062 -21.921875 15.757812 -21.359375 16.875 -20.234375 C 18 -19.117188 18.757812 -17.507812 19.15625 -15.40625 Z M 13.265625 -7.21875 C 13.492188 -8.144531 13.609375 -9.351562 13.609375 -10.84375 C 13.609375 -12.519531 13.484375 -13.765625 13.234375 -14.578125 C 12.785156 -16.085938 11.929688 -16.84375 10.671875 -16.84375 C 9.378906 -16.84375 8.550781 -16.070312 8.1875 -14.53125 C 7.96875 -13.550781 7.859375 -12.320312 7.859375 -10.84375 C 7.859375 -9.21875 7.96875 -8 8.1875 -7.1875 C 8.550781 -5.5625 9.378906 -4.75 10.671875 -4.75 C 12.035156 -4.75 12.898438 -5.570312 13.265625 -7.21875 Z M 13.265625 -7.21875 "/></g></g><g style="fill:#000000;fill-opacity:1;"><g transform="translate(350.895231, 60.749999)"><path style="stroke:none" d="M 19.234375 -14.0625 C 19.316406 -13.144531 19.359375 -12.125 19.359375 -11 L 19.3125 -9.359375 C 19.3125 -9.023438 19.144531 -8.859375 18.8125 -8.859375 L 7.6875 -8.859375 C 7.539062 -8.859375 7.46875 -8.789062 7.46875 -8.65625 C 7.53125 -8.007812 7.585938 -7.53125 7.640625 -7.21875 C 7.785156 -6.4375 8.128906 -5.820312 8.671875 -5.375 C 9.210938 -4.925781 9.890625 -4.703125 10.703125 -4.703125 C 12.078125 -4.734375 13.03125 -5.363281 13.5625 -6.59375 C 13.707031 -6.875 13.921875 -6.988281 14.203125 -6.9375 L 18.640625 -6.046875 C 18.984375 -5.960938 19.097656 -5.753906 18.984375 -5.421875 C 18.367188 -3.566406 17.351562 -2.140625 15.9375 -1.140625 C 14.519531 -0.148438 12.773438 0.34375 10.703125 0.34375 C 8.210938 0.34375 6.234375 -0.222656 4.765625 -1.359375 C 3.296875 -2.492188 2.335938 -4.128906 1.890625 -6.265625 C 1.640625 -7.410156 1.515625 -9.160156 1.515625 -11.515625 C 1.515625 -12.859375 1.597656 -13.988281 1.765625 -14.90625 C 2.066406 -17.039062 2.988281 -18.742188 4.53125 -20.015625 C 6.070312 -21.285156 8.019531 -21.921875 10.375 -21.921875 C 12.925781 -21.921875 15 -21.195312 16.59375 -19.75 C 18.1875 -18.3125 19.066406 -16.414062 19.234375 -14.0625 Z M 10.421875 -16.84375 C 9.660156 -16.84375 9.035156 -16.617188 8.546875 -16.171875 C 8.054688 -15.722656 7.742188 -15.109375 7.609375 -14.328125 C 7.515625 -13.816406 7.46875 -13.28125 7.46875 -12.71875 C 7.46875 -12.582031 7.539062 -12.515625 7.6875 -12.515625 L 13.140625 -12.515625 C 13.285156 -12.515625 13.359375 -12.582031 13.359375 -12.71875 C 13.359375 -13.28125 13.316406 -13.816406 13.234375 -14.328125 C 13.117188 -15.078125 12.804688 -15.679688 12.296875 -16.140625 C 11.796875 -16.609375 11.171875 -16.84375 10.421875 -16.84375 Z M 10.421875 -16.84375 "/></g></g><g style="fill:#000000;fill-opacity:1;"><g transform="translate(154.420922, 102.749996)"><path style="stroke:none" d="M 17.765625 0 C 17.453125 0 17.253906 -0.140625 17.171875 -0.421875 L 16.21875 -4.53125 C 16.1875 -4.644531 16.113281 -4.703125 16 -4.703125 L 8.140625 -4.703125 C 8.035156 -4.703125 7.96875 -4.644531 7.9375 -4.53125 L 6.96875 -0.421875 C 6.882812 -0.140625 6.703125 0 6.421875 0 L 1.34375 0 C 0.976562 0 0.835938 -0.179688 0.921875 -0.546875 L 8.484375 -28.984375 C 8.566406 -29.265625 8.765625 -29.40625 9.078125 -29.40625 L 15.15625 -29.40625 C 15.46875 -29.40625 15.664062 -29.265625 15.75 -28.984375 L 23.3125 -0.546875 L 23.359375 -0.375 C 23.359375 -0.125 23.203125 0 22.890625 0 Z M 9.078125 -9.53125 C 9.046875 -9.445312 9.054688 -9.382812 9.109375 -9.34375 C 9.171875 -9.300781 9.226562 -9.28125 9.28125 -9.28125 L 14.828125 -9.28125 C 14.878906 -9.28125 14.929688 -9.300781 14.984375 -9.34375 C 15.046875 -9.382812 15.0625 -9.445312 15.03125 -9.53125 L 12.140625 -21.71875 C 12.109375 -21.820312 12.0625 -21.875 12 -21.875 C 11.945312 -21.875 11.910156 -21.820312 11.890625 -21.71875 Z M 9.078125 -9.53125 "/></g></g><g style="fill:#000000;fill-opacity:1;"><g transform="translate(178.570919, 102.749996)"><path style="stroke:none" d="M 9.78125 0.296875 C 7.175781 0.296875 5.101562 -0.273438 3.5625 -1.421875 C 2.03125 -2.578125 1.265625 -4.09375 1.265625 -5.96875 L 1.265625 -6.296875 C 1.265625 -6.441406 1.3125 -6.5625 1.40625 -6.65625 C 1.5 -6.75 1.617188 -6.796875 1.765625 -6.796875 L 6.390625 -6.796875 C 6.523438 -6.796875 6.640625 -6.75 6.734375 -6.65625 C 6.835938 -6.5625 6.890625 -6.441406 6.890625 -6.296875 L 6.890625 -6.21875 C 6.890625 -5.601562 7.164062 -5.097656 7.71875 -4.703125 C 8.28125 -4.304688 8.96875 -4.109375 9.78125 -4.109375 C 10.539062 -4.109375 11.144531 -4.285156 11.59375 -4.640625 C 12.039062 -4.992188 12.265625 -5.4375 12.265625 -5.96875 C 12.265625 -6.5 12.019531 -6.90625 11.53125 -7.1875 C 11.039062 -7.46875 10.25 -7.785156 9.15625 -8.140625 C 8.707031 -8.253906 8.035156 -8.476562 7.140625 -8.8125 C 5.460938 -9.375 4.097656 -10.128906 3.046875 -11.078125 C 1.992188 -12.035156 1.46875 -13.410156 1.46875 -15.203125 C 1.46875 -17.242188 2.207031 -18.863281 3.6875 -20.0625 C 5.175781 -21.269531 7.140625 -21.875 9.578125 -21.875 C 12.097656 -21.875 14.101562 -21.25 15.59375 -20 C 17.09375 -18.757812 17.84375 -17.101562 17.84375 -15.03125 C 17.84375 -14.726562 17.675781 -14.578125 17.34375 -14.578125 L 12.8125 -14.578125 C 12.664062 -14.578125 12.546875 -14.625 12.453125 -14.71875 C 12.359375 -14.820312 12.3125 -14.941406 12.3125 -15.078125 L 12.3125 -15.203125 C 12.3125 -15.796875 12.070312 -16.285156 11.59375 -16.671875 C 11.113281 -17.066406 10.46875 -17.265625 9.65625 -17.265625 C 8.90625 -17.265625 8.296875 -17.082031 7.828125 -16.71875 C 7.367188 -16.351562 7.140625 -15.90625 7.140625 -15.375 C 7.140625 -14.78125 7.414062 -14.320312 7.96875 -14 C 8.53125 -13.6875 9.390625 -13.359375 10.546875 -13.015625 C 10.796875 -12.929688 11.039062 -12.851562 11.28125 -12.78125 C 11.519531 -12.71875 11.734375 -12.644531 11.921875 -12.5625 C 13.828125 -11.914062 15.351562 -11.132812 16.5 -10.21875 C 17.65625 -9.3125 18.234375 -7.960938 18.234375 -6.171875 C 18.234375 -4.160156 17.46875 -2.578125 15.9375 -1.421875 C 14.414062 -0.273438 12.363281 0.296875 9.78125 0.296875 Z M 9.78125 0.296875 "/></g></g><g style="fill:#000000;fill-opacity:1;"><g transform="translate(197.428915, 102.749996)"><path style="stroke:none" d="M 9.78125 0.296875 C 7.175781 0.296875 5.101562 -0.273438 3.5625 -1.421875 C 2.03125 -2.578125 1.265625 -4.09375 1.265625 -5.96875 L 1.265625 -6.296875 C 1.265625 -6.441406 1.3125 -6.5625 1.40625 -6.65625 C 1.5 -6.75 1.617188 -6.796875 1.765625 -6.796875 L 6.390625 -6.796875 C 6.523438 -6.796875 6.640625 -6.75 6.734375 -6.65625 C 6.835938 -6.5625 6.890625 -6.441406 6.890625 -6.296875 L 6.890625 -6.21875 C 6.890625 -5.601562 7.164062 -5.097656 7.71875 -4.703125 C 8.28125 -4.304688 8.96875 -4.109375 9.78125 -4.109375 C 10.539062 -4.109375 11.144531 -4.285156 11.59375 -4.640625 C 12.039062 -4.992188 12.265625 -5.4375 12.265625 -5.96875 C 12.265625 -6.5 12.019531 -6.90625 11.53125 -7.1875 C 11.039062 -7.46875 10.25 -7.785156 9.15625 -8.140625 C 8.707031 -8.253906 8.035156 -8.476562 7.140625 -8.8125 C 5.460938 -9.375 4.097656 -10.128906 3.046875 -11.078125 C 1.992188 -12.035156 1.46875 -13.410156 1.46875 -15.203125 C 1.46875 -17.242188 2.207031 -18.863281 3.6875 -20.0625 C 5.175781 -21.269531 7.140625 -21.875 9.578125 -21.875 C 12.097656 -21.875 14.101562 -21.25 15.59375 -20 C 17.09375 -18.757812 17.84375 -17.101562 17.84375 -15.03125 C 17.84375 -14.726562 17.675781 -14.578125 17.34375 -14.578125 L 12.8125 -14.578125 C 12.664062 -14.578125 12.546875 -14.625 12.453125 -14.71875 C 12.359375 -14.820312 12.3125 -14.941406 12.3125 -15.078125 L 12.3125 -15.203125 C 12.3125 -15.796875 12.070312 -16.285156 11.59375 -16.671875 C 11.113281 -17.066406 10.46875 -17.265625 9.65625 -17.265625 C 8.90625 -17.265625 8.296875 -17.082031 7.828125 -16.71875 C 7.367188 -16.351562 7.140625 -15.90625 7.140625 -15.375 C 7.140625 -14.78125 7.414062 -14.320312 7.96875 -14 C 8.53125 -13.6875 9.390625 -13.359375 10.546875 -13.015625 C 10.796875 -12.929688 11.039062 -12.851562 11.28125 -12.78125 C 11.519531 -12.71875 11.734375 -12.644531 11.921875 -12.5625 C 13.828125 -11.914062 15.351562 -11.132812 16.5 -10.21875 C 17.65625 -9.3125 18.234375 -7.960938 18.234375 -6.171875 C 18.234375 -4.160156 17.46875 -2.578125 15.9375 -1.421875 C 14.414062 -0.273438 12.363281 0.296875 9.78125 0.296875 Z M 9.78125 0.296875 "/></g></g><g style="fill:#000000;fill-opacity:1;"><g transform="translate(216.62291, 102.749996)"><path style="stroke:none" d="M 10.578125 0.34375 C 8.148438 0.34375 6.15625 -0.265625 4.59375 -1.484375 C 3.039062 -2.703125 2.113281 -4.378906 1.8125 -6.515625 C 1.582031 -7.796875 1.46875 -9.238281 1.46875 -10.84375 C 1.46875 -12.457031 1.582031 -13.894531 1.8125 -15.15625 C 2.113281 -17.226562 3.039062 -18.875 4.59375 -20.09375 C 6.15625 -21.3125 8.148438 -21.921875 10.578125 -21.921875 C 12.992188 -21.921875 14.960938 -21.3125 16.484375 -20.09375 C 18.015625 -18.875 18.945312 -17.226562 19.28125 -15.15625 C 19.5 -13.894531 19.609375 -12.457031 19.609375 -10.84375 C 19.609375 -9.269531 19.5 -7.835938 19.28125 -6.546875 C 18.96875 -4.390625 18.046875 -2.703125 16.515625 -1.484375 C 14.992188 -0.265625 13.015625 0.34375 10.578125 0.34375 Z M 10.578125 -4.75 C 11.304688 -4.75 11.929688 -4.984375 12.453125 -5.453125 C 12.972656 -5.929688 13.316406 -6.578125 13.484375 -7.390625 C 13.617188 -8.566406 13.6875 -9.71875 13.6875 -10.84375 C 13.6875 -11.988281 13.617188 -13.117188 13.484375 -14.234375 C 13.335938 -15.046875 13.003906 -15.679688 12.484375 -16.140625 C 11.972656 -16.609375 11.328125 -16.84375 10.546875 -16.84375 C 9.785156 -16.84375 9.144531 -16.609375 8.625 -16.140625 C 8.113281 -15.679688 7.785156 -15.046875 7.640625 -14.234375 C 7.503906 -13.398438 7.4375 -12.269531 7.4375 -10.84375 C 7.4375 -9.4375 7.492188 -8.285156 7.609375 -7.390625 C 7.773438 -6.578125 8.125 -5.929688 8.65625 -5.453125 C 9.1875 -4.984375 9.828125 -4.75 10.578125 -4.75 Z M 10.578125 -4.75 "/></g></g><g style="fill:#000000;fill-opacity:1;"><g transform="translate(237.748908, 102.749996)"><path style="stroke:none" d="M 10.453125 0.34375 C 8.109375 0.34375 6.171875 -0.25 4.640625 -1.4375 C 3.117188 -2.632812 2.175781 -4.269531 1.8125 -6.34375 C 1.582031 -7.488281 1.46875 -9 1.46875 -10.875 C 1.46875 -12.28125 1.582031 -13.765625 1.8125 -15.328125 C 2.175781 -17.347656 3.125 -18.953125 4.65625 -20.140625 C 6.195312 -21.328125 8.128906 -21.921875 10.453125 -21.921875 C 12.722656 -21.921875 14.632812 -21.347656 16.1875 -20.203125 C 17.738281 -19.054688 18.695312 -17.546875 19.0625 -15.671875 C 19.125 -15.410156 19.179688 -15.003906 19.234375 -14.453125 C 19.234375 -14.140625 19.066406 -13.957031 18.734375 -13.90625 L 13.90625 -13.4375 L 13.8125 -13.4375 C 13.5625 -13.4375 13.410156 -13.59375 13.359375 -13.90625 C 13.359375 -14.101562 13.34375 -14.242188 13.3125 -14.328125 C 13.257812 -14.546875 13.203125 -14.738281 13.140625 -14.90625 C 12.972656 -15.46875 12.648438 -15.929688 12.171875 -16.296875 C 11.703125 -16.660156 11.117188 -16.84375 10.421875 -16.84375 C 9.660156 -16.84375 9.039062 -16.617188 8.5625 -16.171875 C 8.09375 -15.722656 7.785156 -15.109375 7.640625 -14.328125 C 7.472656 -13.398438 7.390625 -12.238281 7.390625 -10.84375 C 7.390625 -9.300781 7.488281 -8.09375 7.6875 -7.21875 C 7.820312 -6.46875 8.117188 -5.867188 8.578125 -5.421875 C 9.046875 -4.972656 9.660156 -4.75 10.421875 -4.75 C 11.234375 -4.75 11.882812 -4.972656 12.375 -5.421875 C 12.863281 -5.867188 13.148438 -6.425781 13.234375 -7.09375 L 13.3125 -7.609375 C 13.34375 -7.742188 13.40625 -7.859375 13.5 -7.953125 C 13.601562 -8.054688 13.722656 -8.09375 13.859375 -8.0625 L 18.734375 -7.640625 C 19.035156 -7.585938 19.1875 -7.40625 19.1875 -7.09375 C 19.1875 -6.925781 19.160156 -6.648438 19.109375 -6.265625 C 18.828125 -4.210938 17.910156 -2.597656 16.359375 -1.421875 C 14.804688 -0.242188 12.835938 0.34375 10.453125 0.34375 Z M 10.453125 0.34375 "/></g></g><g style="fill:#000000;fill-opacity:1;"><g transform="translate(258.16091, 102.749996)"><path style="stroke:none" d="M 4.953125 -24.03125 C 4.003906 -24.03125 3.222656 -24.34375 2.609375 -24.96875 C 1.992188 -25.59375 1.6875 -26.382812 1.6875 -27.34375 C 1.6875 -28.320312 1.984375 -29.117188 2.578125 -29.734375 C 3.179688 -30.347656 3.972656 -30.65625 4.953125 -30.65625 C 5.929688 -30.65625 6.726562 -30.347656 7.34375 -29.734375 C 7.96875 -29.117188 8.28125 -28.320312 8.28125 -27.34375 C 8.28125 -26.382812 7.960938 -25.59375 7.328125 -24.96875 C 6.703125 -24.34375 5.910156 -24.03125 4.953125 -24.03125 Z M 2.515625 0 C 2.378906 0 2.257812 -0.046875 2.15625 -0.140625 C 2.0625 -0.242188 2.015625 -0.363281 2.015625 -0.5 L 2.015625 -21.078125 C 2.015625 -21.222656 2.0625 -21.34375 2.15625 -21.4375 C 2.257812 -21.539062 2.378906 -21.59375 2.515625 -21.59375 L 7.4375 -21.59375 C 7.570312 -21.59375 7.6875 -21.539062 7.78125 -21.4375 C 7.882812 -21.34375 7.9375 -21.222656 7.9375 -21.078125 L 7.9375 -0.5 C 7.9375 -0.363281 7.882812 -0.242188 7.78125 -0.140625 C 7.6875 -0.046875 7.570312 0 7.4375 0 Z M 2.515625 0 "/></g></g><g style="fill:#000000;fill-opacity:1;"><g transform="translate(268.114911, 102.749996)"><path style="stroke:none" d="M 10.125 -21.921875 C 11.800781 -21.921875 13.296875 -21.617188 14.609375 -21.015625 C 15.929688 -20.421875 16.960938 -19.582031 17.703125 -18.5 C 18.441406 -17.425781 18.8125 -16.203125 18.8125 -14.828125 L 18.8125 -0.5 C 18.8125 -0.363281 18.757812 -0.242188 18.65625 -0.140625 C 18.5625 -0.046875 18.445312 0 18.3125 0 L 13.390625 0 C 13.253906 0 13.132812 -0.046875 13.03125 -0.140625 C 12.9375 -0.242188 12.890625 -0.363281 12.890625 -0.5 L 12.890625 -1.6875 C 12.890625 -1.769531 12.859375 -1.820312 12.796875 -1.84375 C 12.742188 -1.875 12.691406 -1.847656 12.640625 -1.765625 C 11.578125 -0.359375 9.925781 0.34375 7.6875 0.34375 C 5.78125 0.34375 4.191406 -0.144531 2.921875 -1.125 C 1.648438 -2.113281 1.015625 -3.753906 1.015625 -6.046875 C 1.015625 -10.609375 3.867188 -12.890625 9.578125 -12.890625 L 12.6875 -12.890625 C 12.820312 -12.890625 12.890625 -12.960938 12.890625 -13.109375 L 12.890625 -14.0625 C 12.890625 -14.90625 12.644531 -15.578125 12.15625 -16.078125 C 11.664062 -16.585938 11 -16.84375 10.15625 -16.84375 C 9.488281 -16.84375 8.929688 -16.6875 8.484375 -16.375 C 8.035156 -16.070312 7.753906 -15.65625 7.640625 -15.125 C 7.554688 -14.84375 7.363281 -14.703125 7.0625 -14.703125 L 1.96875 -15 C 1.832031 -15 1.710938 -15.039062 1.609375 -15.125 C 1.515625 -15.207031 1.484375 -15.316406 1.515625 -15.453125 C 1.679688 -17.390625 2.554688 -18.953125 4.140625 -20.140625 C 5.722656 -21.328125 7.71875 -21.921875 10.125 -21.921875 Z M 9.453125 -4.15625 C 10.398438 -4.15625 11.207031 -4.421875 11.875 -4.953125 C 12.550781 -5.484375 12.890625 -6.1875 12.890625 -7.0625 L 12.890625 -8.8125 C 12.890625 -8.957031 12.820312 -9.03125 12.6875 -9.03125 L 10.328125 -9.03125 C 9.296875 -9.03125 8.484375 -8.804688 7.890625 -8.359375 C 7.304688 -7.910156 7.015625 -7.265625 7.015625 -6.421875 C 7.015625 -5.691406 7.238281 -5.128906 7.6875 -4.734375 C 8.132812 -4.347656 8.722656 -4.15625 9.453125 -4.15625 Z M 9.453125 -4.15625 "/></g></g><g style="fill:#000000;fill-opacity:1;"><g transform="translate(288.358913, 102.749996)"><path style="stroke:none" d="M 13.015625 -17.640625 C 13.015625 -17.503906 12.960938 -17.382812 12.859375 -17.28125 C 12.765625 -17.1875 12.648438 -17.140625 12.515625 -17.140625 L 9.28125 -17.140625 C 9.144531 -17.140625 9.078125 -17.066406 9.078125 -16.921875 L 9.078125 -7.46875 C 9.078125 -6.601562 9.25 -5.984375 9.59375 -5.609375 C 9.945312 -5.234375 10.488281 -5.054688 11.21875 -5.078125 L 12.046875 -5.078125 C 12.191406 -5.078125 12.3125 -5.023438 12.40625 -4.921875 C 12.507812 -4.828125 12.5625 -4.710938 12.5625 -4.578125 L 12.5625 -0.5 C 12.5625 -0.164062 12.390625 0 12.046875 0 C 11.578125 0.03125 10.878906 0.046875 9.953125 0.046875 C 7.742188 0.046875 6.097656 -0.316406 5.015625 -1.046875 C 3.941406 -1.773438 3.40625 -3.148438 3.40625 -5.171875 L 3.40625 -16.921875 C 3.40625 -17.066406 3.332031 -17.140625 3.1875 -17.140625 L 1.265625 -17.140625 C 1.117188 -17.140625 0.992188 -17.1875 0.890625 -17.28125 C 0.796875 -17.382812 0.75 -17.503906 0.75 -17.640625 L 0.75 -21.078125 C 0.75 -21.222656 0.796875 -21.34375 0.890625 -21.4375 C 0.992188 -21.539062 1.117188 -21.59375 1.265625 -21.59375 L 3.1875 -21.59375 C 3.332031 -21.59375 3.40625 -21.660156 3.40625 -21.796875 L 3.40625 -26.625 C 3.40625 -26.769531 3.453125 -26.890625 3.546875 -26.984375 C 3.648438 -27.078125 3.769531 -27.125 3.90625 -27.125 L 8.5625 -27.125 C 8.707031 -27.125 8.828125 -27.078125 8.921875 -26.984375 C 9.023438 -26.890625 9.078125 -26.769531 9.078125 -26.625 L 9.078125 -21.796875 C 9.078125 -21.660156 9.144531 -21.59375 9.28125 -21.59375 L 12.515625 -21.59375 C 12.648438 -21.59375 12.765625 -21.539062 12.859375 -21.4375 C 12.960938 -21.34375 13.015625 -21.222656 13.015625 -21.078125 Z M 13.015625 -17.640625 "/></g></g><g style="fill:#000000;fill-opacity:1;"><g transform="translate(302.428909, 102.749996)"><path style="stroke:none" d="M 4.953125 -24.03125 C 4.003906 -24.03125 3.222656 -24.34375 2.609375 -24.96875 C 1.992188 -25.59375 1.6875 -26.382812 1.6875 -27.34375 C 1.6875 -28.320312 1.984375 -29.117188 2.578125 -29.734375 C 3.179688 -30.347656 3.972656 -30.65625 4.953125 -30.65625 C 5.929688 -30.65625 6.726562 -30.347656 7.34375 -29.734375 C 7.96875 -29.117188 8.28125 -28.320312 8.28125 -27.34375 C 8.28125 -26.382812 7.960938 -25.59375 7.328125 -24.96875 C 6.703125 -24.34375 5.910156 -24.03125 4.953125 -24.03125 Z M 2.515625 0 C 2.378906 0 2.257812 -0.046875 2.15625 -0.140625 C 2.0625 -0.242188 2.015625 -0.363281 2.015625 -0.5 L 2.015625 -21.078125 C 2.015625 -21.222656 2.0625 -21.34375 2.15625 -21.4375 C 2.257812 -21.539062 2.378906 -21.59375 2.515625 -21.59375 L 7.4375 -21.59375 C 7.570312 -21.59375 7.6875 -21.539062 7.78125 -21.4375 C 7.882812 -21.34375 7.9375 -21.222656 7.9375 -21.078125 L 7.9375 -0.5 C 7.9375 -0.363281 7.882812 -0.242188 7.78125 -0.140625 C 7.6875 -0.046875 7.570312 0 7.4375 0 Z M 2.515625 0 "/></g></g><g style="fill:#000000;fill-opacity:1;"><g transform="translate(312.38291, 102.749996)"><path style="stroke:none" d="M 10.578125 0.34375 C 8.148438 0.34375 6.15625 -0.265625 4.59375 -1.484375 C 3.039062 -2.703125 2.113281 -4.378906 1.8125 -6.515625 C 1.582031 -7.796875 1.46875 -9.238281 1.46875 -10.84375 C 1.46875 -12.457031 1.582031 -13.894531 1.8125 -15.15625 C 2.113281 -17.226562 3.039062 -18.875 4.59375 -20.09375 C 6.15625 -21.3125 8.148438 -21.921875 10.578125 -21.921875 C 12.992188 -21.921875 14.960938 -21.3125 16.484375 -20.09375 C 18.015625 -18.875 18.945312 -17.226562 19.28125 -15.15625 C 19.5 -13.894531 19.609375 -12.457031 19.609375 -10.84375 C 19.609375 -9.269531 19.5 -7.835938 19.28125 -6.546875 C 18.96875 -4.390625 18.046875 -2.703125 16.515625 -1.484375 C 14.992188 -0.265625 13.015625 0.34375 10.578125 0.34375 Z M 10.578125 -4.75 C 11.304688 -4.75 11.929688 -4.984375 12.453125 -5.453125 C 12.972656 -5.929688 13.316406 -6.578125 13.484375 -7.390625 C 13.617188 -8.566406 13.6875 -9.71875 13.6875 -10.84375 C 13.6875 -11.988281 13.617188 -13.117188 13.484375 -14.234375 C 13.335938 -15.046875 13.003906 -15.679688 12.484375 -16.140625 C 11.972656 -16.609375 11.328125 -16.84375 10.546875 -16.84375 C 9.785156 -16.84375 9.144531 -16.609375 8.625 -16.140625 C 8.113281 -15.679688 7.785156 -15.046875 7.640625 -14.234375 C 7.503906 -13.398438 7.4375 -12.269531 7.4375 -10.84375 C 7.4375 -9.4375 7.492188 -8.285156 7.609375 -7.390625 C 7.773438 -6.578125 8.125 -5.929688 8.65625 -5.453125 C 9.1875 -4.984375 9.828125 -4.75 10.578125 -4.75 Z M 10.578125 -4.75 "/></g></g><g style="fill:#000000;fill-opacity:1;"><g transform="translate(333.508909, 102.749996)"><path style="stroke:none" d="M 12.5625 -21.921875 C 14.601562 -21.921875 16.203125 -21.269531 17.359375 -19.96875 C 18.523438 -18.664062 19.109375 -16.851562 19.109375 -14.53125 L 19.109375 -0.5 C 19.109375 -0.363281 19.054688 -0.242188 18.953125 -0.140625 C 18.859375 -0.046875 18.742188 0 18.609375 0 L 13.6875 0 C 13.550781 0 13.429688 -0.046875 13.328125 -0.140625 C 13.234375 -0.242188 13.1875 -0.363281 13.1875 -0.5 L 13.1875 -13.6875 C 13.1875 -14.664062 12.945312 -15.4375 12.46875 -16 C 12 -16.5625 11.359375 -16.84375 10.546875 -16.84375 C 9.703125 -16.84375 9.035156 -16.554688 8.546875 -15.984375 C 8.054688 -15.410156 7.8125 -14.632812 7.8125 -13.65625 L 7.8125 -0.5 C 7.8125 -0.363281 7.757812 -0.242188 7.65625 -0.140625 C 7.5625 -0.046875 7.445312 0 7.3125 0 L 2.390625 0 C 2.253906 0 2.132812 -0.046875 2.03125 -0.140625 C 1.9375 -0.242188 1.890625 -0.363281 1.890625 -0.5 L 1.890625 -21.078125 C 1.890625 -21.222656 1.9375 -21.34375 2.03125 -21.4375 C 2.132812 -21.539062 2.253906 -21.59375 2.390625 -21.59375 L 7.3125 -21.59375 C 7.445312 -21.59375 7.5625 -21.539062 7.65625 -21.4375 C 7.757812 -21.34375 7.8125 -21.222656 7.8125 -21.078125 L 7.8125 -19.90625 C 7.8125 -19.820312 7.835938 -19.769531 7.890625 -19.75 C 7.953125 -19.738281 8.023438 -19.789062 8.109375 -19.90625 C 9.117188 -21.25 10.601562 -21.921875 12.5625 -21.921875 Z M 12.5625 -21.921875 "/></g></g><g clip-rule="nonzero" clip-path="url(#ff04507f85)"><g clip-rule="nonzero" clip-path="url(#85c27fcc24)"><path style=" stroke:none;fill-rule:nonzero;fill:#ffff00;fill-opacity:1;" d="M 45.269531 44.109375 L 88.257812 44.109375 L 88.257812 88.609375 L 45.269531 88.609375 Z M 45.269531 44.109375 "/></g></g><g clip-rule="nonzero" clip-path="url(#3a0d3a1829)"><g clip-rule="nonzero" clip-path="url(#61146d829f)"><path style="fill:none;stroke-width:1;stroke-linecap:butt;stroke-linejoin:miter;stroke:#000000;stroke-opacity:1;stroke-miterlimit:4;" d="M 14.001513 -0.00147859 L 43.312374 -0.00147859 C 51.047257 -0.00147859 57.310575 6.267076 57.310575 13.996723 L 57.310575 45.250469 C 57.310575 52.980116 51.047257 59.24867 43.312374 59.24867 L 14.001513 59.24867 C 6.266629 59.24867 -0.00192546 52.980116 -0.00192546 45.250469 L -0.00192546 13.996723 C -0.00192546 6.267076 6.266629 -0.00147859 14.001513 -0.00147859 Z M 14.001513 -0.00147859 " transform="matrix(0.745911,0,0,0.745911,45.270967,44.110478)"/></g></g><g clip-rule="nonzero" clip-path="url(#6296d840b0)"><g clip-rule="nonzero" clip-path="url(#0f994a90ad)"><path style=" stroke:none;fill-rule:nonzero;fill:#da251d;fill-opacity:1;" d="M 2.285156 0 L 45.269531 0 L 45.269531 44.5 L 2.285156 44.5 Z M 2.285156 0 "/></g></g><g clip-rule="nonzero" clip-path="url(#3913fc1d0f)"><g clip-rule="nonzero" clip-path="url(#849e857c33)"><path style="fill:none;stroke-width:1;stroke-linecap:butt;stroke-linejoin:miter;stroke:#000000;stroke-opacity:1;stroke-miterlimit:4;" d="M 13.999921 -0.00107298 L 43.310782 -0.00107298 C 51.045665 -0.00107298 57.31422 6.267482 57.31422 13.997128 L 57.31422 45.250875 C 57.31422 52.980521 51.045665 59.249076 43.310782 59.249076 L 13.999921 59.249076 C 6.265037 59.249076 0.00171964 52.980521 0.00171964 45.250875 L 0.00171964 13.997128 C 0.00171964 6.267482 6.265037 -0.00107298 13.999921 -0.00107298 Z M 13.999921 -0.00107298 " transform="matrix(0.745911,0,0,0.745911,2.283874,0.000800344)"/></g></g><g clip-rule="nonzero" clip-path="url(#74935e2481)"><g clip-rule="nonzero" clip-path="url(#6beac0b42f)"><path style=" stroke:none;fill-rule:nonzero;fill:#da251d;fill-opacity:1;" d="M 45.269531 0 L 88.257812 0 L 88.257812 44.5 L 45.269531 44.5 Z M 45.269531 0 "/></g></g><g clip-rule="nonzero" clip-path="url(#906032f32f)"><g clip-rule="nonzero" clip-path="url(#c932a048c2)"><path style="fill:none;stroke-width:1;stroke-linecap:butt;stroke-linejoin:miter;stroke:#000000;stroke-opacity:1;stroke-miterlimit:4;" d="M 14.001513 -0.00107298 L 43.312374 -0.00107298 C 51.047257 -0.00107298 57.310575 6.267482 57.310575 13.997128 L 57.310575 45.250875 C 57.310575 52.980521 51.047257 59.249076 43.312374 59.249076 L 14.001513 59.249076 C 6.266629 59.249076 -0.00192546 52.980521 -0.00192546 45.250875 L -0.00192546 13.997128 C -0.00192546 6.267482 6.266629 -0.00107298 14.001513 -0.00107298 Z M 14.001513 -0.00107298 " transform="matrix(0.745911,0,0,0.745911,45.270967,0.000800344)"/></g></g><g clip-rule="nonzero" clip-path="url(#5eb4a2b26f)"><g clip-rule="nonzero" clip-path="url(#5d004d7360)"><path style=" stroke:none;fill-rule:nonzero;fill:#da251d;fill-opacity:1;" d="M 88.257812 0 L 131.246094 0 L 131.246094 44.5 L 88.257812 44.5 Z M 88.257812 0 "/></g></g><g clip-rule="nonzero" clip-path="url(#21dae3909c)"><g clip-rule="nonzero" clip-path="url(#fee6559b4c)"><path style="fill:none;stroke-width:1;stroke-linecap:butt;stroke-linejoin:miter;stroke:#000000;stroke-opacity:1;stroke-miterlimit:4;" d="M 13.997865 -0.00107298 L 43.313963 -0.00107298 C 51.043609 -0.00107298 57.312164 6.267482 57.312164 13.997128 L 57.312164 45.250875 C 57.312164 52.980521 51.043609 59.249076 43.313963 59.249076 L 13.997865 59.249076 C 6.268218 59.249076 -0.000336403 52.980521 -0.000336403 45.250875 L -0.000336403 13.997128 C -0.000336403 6.267482 6.268218 -0.00107298 13.997865 -0.00107298 Z M 13.997865 -0.00107298 " transform="matrix(0.745911,0,0,0.745911,88.258063,0.000800344)"/></g></g><g clip-rule="nonzero" clip-path="url(#b47da003dc)"><g clip-rule="nonzero" clip-path="url(#af866a7357)"><path style=" stroke:none;fill-rule:nonzero;fill:#da251d;fill-opacity:1;" d="M 88.257812 44.4375 L 131.246094 44.4375 L 131.246094 88.265625 L 88.257812 88.265625 Z M 88.257812 44.4375 "/></g></g><g clip-rule="nonzero" clip-path="url(#1fa3da2b1a)"><g clip-rule="nonzero" clip-path="url(#348ae7cc4d)"><path style="fill:none;stroke-width:1;stroke-linecap:butt;stroke-linejoin:miter;stroke:#000000;stroke-opacity:1;stroke-miterlimit:4;" d="M 13.997095 -0.00162209 L 43.302558 -0.00162209 C 51.037691 -0.00162209 57.300213 6.266141 57.300213 13.996033 L 57.300213 44.365339 C 57.300213 52.095231 51.037691 58.357754 43.302558 58.357754 L 13.997095 58.357754 C 6.267203 58.357754 -0.000560084 52.095231 -0.000560084 44.365339 L -0.000560084 13.996033 C -0.000560084 6.266141 6.267203 -0.00162209 13.997095 -0.00162209 Z M 13.997095 -0.00162209 " transform="matrix(0.745382,0,0,0.745382,88.262136,44.438709)"/></g></g><g clip-rule="nonzero" clip-path="url(#23693227b0)"><g clip-rule="nonzero" clip-path="url(#56ca1bc58f)"><path style=" stroke:none;fill-rule:nonzero;fill:#da251d;fill-opacity:1;" d="M 88.257812 88.21875 L 131.246094 88.21875 L 131.246094 132.046875 L 88.257812 132.046875 Z M 88.257812 88.21875 "/></g></g><g clip-rule="nonzero" clip-path="url(#3f2836806b)"><g clip-rule="nonzero" clip-path="url(#e85d12fb91)"><path style="fill:none;stroke-width:1;stroke-linecap:butt;stroke-linejoin:miter;stroke:#000000;stroke-opacity:1;stroke-miterlimit:4;" d="M 13.997095 -0.000812185 L 43.302558 -0.000812185 C 51.037691 -0.000812185 57.300213 6.266951 57.300213 13.996843 L 57.300213 44.360908 C 57.300213 52.0908 51.037691 58.358563 43.302558 58.358563 L 13.997095 58.358563 C 6.267203 58.358563 -0.000560084 52.0908 -0.000560084 44.360908 L -0.000560084 13.996843 C -0.000560084 6.266951 6.267203 -0.000812185 13.997095 -0.000812185 Z M 13.997095 -0.000812185 " transform="matrix(0.745382,0,0,0.745382,88.262136,88.219355)"/></g></g><g clip-rule="nonzero" clip-path="url(#a0cfee8350)"><g clip-rule="nonzero" clip-path="url(#4ce1b5ff9a)"><path style=" stroke:none;fill-rule:nonzero;fill:#da251d;fill-opacity:1;" d="M 45.269531 88.21875 L 88.257812 88.21875 L 88.257812 132.046875 L 45.269531 132.046875 Z M 45.269531 88.21875 "/></g></g><g clip-rule="nonzero" clip-path="url(#b1acac8b1e)"><g clip-rule="nonzero" clip-path="url(#673c830e8a)"><path style="fill:none;stroke-width:1;stroke-linecap:butt;stroke-linejoin:miter;stroke:#000000;stroke-opacity:1;stroke-miterlimit:4;" d="M 13.995512 -0.000812185 L 43.306215 -0.000812185 C 51.036107 -0.000812185 57.30387 6.266951 57.30387 13.996843 L 57.30387 44.360908 C 57.30387 52.0908 51.036107 58.358563 43.306215 58.358563 L 13.995512 58.358563 C 6.26562 58.358563 -0.00214383 52.0908 -0.00214383 44.360908 L -0.00214383 13.996843 C -0.00214383 6.266951 6.26562 -0.000812185 13.995512 -0.000812185 Z M 13.995512 -0.000812185 " transform="matrix(0.745382,0,0,0.745382,45.275035,88.219355)"/></g></g><g clip-rule="nonzero" clip-path="url(#8ed5bd1a35)"><g clip-rule="nonzero" clip-path="url(#2e7eceb469)"><path style=" stroke:none;fill-rule:nonzero;fill:#da251d;fill-opacity:1;" d="M 2.285156 87.5625 L 45.269531 87.5625 L 45.269531 132.058594 L 2.285156 132.058594 Z M 2.285156 87.5625 "/></g></g><g clip-rule="nonzero" clip-path="url(#d4f439c1c6)"><g clip-rule="nonzero" clip-path="url(#8485b08497)"><path style="fill:none;stroke-width:1;stroke-linecap:butt;stroke-linejoin:miter;stroke:#000000;stroke-opacity:1;stroke-miterlimit:4;" d="M 13.999921 0.000554189 L 43.310782 0.000554189 C 51.045665 0.000554189 57.31422 6.269109 57.31422 13.998755 L 57.31422 45.247265 C 57.31422 52.982148 51.045665 59.245466 43.310782 59.245466 L 13.999921 59.245466 C 6.265037 59.245466 0.00171964 52.982148 0.00171964 45.247265 L 0.00171964 13.998755 C 0.00171964 6.269109 6.265037 0.000554189 13.999921 0.000554189 Z M 13.999921 0.000554189 " transform="matrix(0.745911,0,0,0.745911,2.283874,87.562087)"/></g></g><g clip-rule="nonzero" clip-path="url(#63b2184948)"><g clip-rule="nonzero" clip-path="url(#649b0d71ab)"><path style=" stroke:none;fill-rule:nonzero;fill:#da251d;fill-opacity:1;" d="M 2.285156 43.78125 L 45.269531 43.78125 L 45.269531 87.605469 L 2.285156 87.605469 Z M 2.285156 43.78125 "/></g></g><g clip-rule="nonzero" clip-path="url(#08053c143b)"><g clip-rule="nonzero" clip-path="url(#676c8f9ac9)"><path style="fill:none;stroke-width:1;stroke-linecap:butt;stroke-linejoin:miter;stroke:#000000;stroke-opacity:1;stroke-miterlimit:4;" d="M 13.993916 0.000810441 L 43.304619 0.000810441 C 51.034512 0.000810441 57.302275 6.268574 57.302275 13.998466 L 57.302275 44.362531 C 57.302275 52.092423 51.034512 58.360186 43.304619 58.360186 L 13.993916 58.360186 C 6.264024 58.360186 0.00150151 52.092423 0.00150151 44.362531 L 0.00150151 13.998466 C 0.00150151 6.268574 6.264024 0.000810441 13.993916 0.000810441 Z M 13.993916 0.000810441 " transform="matrix(0.745382,0,0,0.745382,2.287943,43.780646)"/></g></g></g></svg>