<svg xmlns="http://www.w3.org/2000/svg" xmlns:xlink="http://www.w3.org/1999/xlink" width="192" zoomAndPan="magnify" viewBox="0 0 144 143.999998" height="192" preserveAspectRatio="xMidYMid meet" version="1.2"><defs><clipPath id="ff3f0f5299"><path d="M 48.550781 48.121094 L 95.449219 48.121094 L 95.449219 96.664062 L 48.550781 96.664062 Z M 48.550781 48.121094 "/></clipPath><clipPath id="39af918003"><path d="M 59.050781 48.121094 L 84.949219 48.121094 C 90.746094 48.121094 95.449219 52.820312 95.449219 58.621094 L 95.449219 86.097656 C 95.449219 91.898438 90.746094 96.597656 84.949219 96.597656 L 59.050781 96.597656 C 53.253906 96.597656 48.550781 91.898438 48.550781 86.097656 L 48.550781 58.621094 C 48.550781 52.820312 53.253906 48.121094 59.050781 48.121094 Z M 59.050781 48.121094 "/></clipPath><clipPath id="23f47858f4"><path d="M 48.554688 48.121094 L 95.792969 48.121094 L 95.792969 96.710938 L 48.554688 96.710938 Z M 48.554688 48.121094 "/></clipPath><clipPath id="48051dd2a8"><path d="M 59.050781 48.121094 L 84.941406 48.121094 C 90.738281 48.121094 95.4375 52.820312 95.4375 58.617188 L 95.4375 86.089844 C 95.4375 91.886719 90.738281 96.589844 84.941406 96.589844 L 59.050781 96.589844 C 53.253906 96.589844 48.554688 91.886719 48.554688 86.089844 L 48.554688 58.617188 C 48.554688 52.820312 53.253906 48.121094 59.050781 48.121094 Z M 59.050781 48.121094 "/></clipPath><clipPath id="7effc3ffd2"><path d="M 1.65625 0 L 48.550781 0 L 48.550781 48.542969 L 1.65625 48.542969 Z M 1.65625 0 "/></clipPath><clipPath id="d0b7a89c05"><path d="M 12.15625 0 L 38.050781 0 C 43.851562 0 48.550781 4.699219 48.550781 10.5 L 48.550781 37.980469 C 48.550781 43.777344 43.851562 48.480469 38.050781 48.480469 L 12.15625 48.480469 C 6.359375 48.480469 1.65625 43.777344 1.65625 37.980469 L 1.65625 10.5 C 1.65625 4.699219 6.359375 0 12.15625 0 Z M 12.15625 0 "/></clipPath><clipPath id="8c7ca9c1e7"><path d="M 1.65625 0 L 48.898438 0 L 48.898438 48.589844 L 1.65625 48.589844 Z M 1.65625 0 "/></clipPath><clipPath id="cb41c31f67"><path d="M 12.15625 0 L 38.046875 0 C 43.84375 0 48.542969 4.699219 48.542969 10.496094 L 48.542969 37.972656 C 48.542969 43.769531 43.84375 48.46875 38.046875 48.46875 L 12.15625 48.46875 C 6.359375 48.46875 1.65625 43.769531 1.65625 37.972656 L 1.65625 10.496094 C 1.65625 4.699219 6.359375 0 12.15625 0 Z M 12.15625 0 "/></clipPath><clipPath id="460ed1dc12"><path d="M 48.550781 0 L 95.449219 0 L 95.449219 48.542969 L 48.550781 48.542969 Z M 48.550781 0 "/></clipPath><clipPath id="4516ab7d99"><path d="M 59.050781 0 L 84.949219 0 C 90.746094 0 95.449219 4.699219 95.449219 10.5 L 95.449219 37.980469 C 95.449219 43.777344 90.746094 48.480469 84.949219 48.480469 L 59.050781 48.480469 C 53.253906 48.480469 48.550781 43.777344 48.550781 37.980469 L 48.550781 10.5 C 48.550781 4.699219 53.253906 0 59.050781 0 Z M 59.050781 0 "/></clipPath><clipPath id="608e5d6f53"><path d="M 48.554688 0 L 95.792969 0 L 95.792969 48.589844 L 48.554688 48.589844 Z M 48.554688 0 "/></clipPath><clipPath id="1997c08ee3"><path d="M 59.050781 0 L 84.941406 0 C 90.738281 0 95.4375 4.699219 95.4375 10.496094 L 95.4375 37.972656 C 95.4375 43.769531 90.738281 48.46875 84.941406 48.46875 L 59.050781 48.46875 C 53.253906 48.46875 48.554688 43.769531 48.554688 37.972656 L 48.554688 10.496094 C 48.554688 4.699219 53.253906 0 59.050781 0 Z M 59.050781 0 "/></clipPath><clipPath id="f8d2af5a15"><path d="M 95.449219 0 L 142.34375 0 L 142.34375 48.542969 L 95.449219 48.542969 Z M 95.449219 0 "/></clipPath><clipPath id="034652ce98"><path d="M 105.949219 0 L 131.84375 0 C 137.640625 0 142.34375 4.699219 142.34375 10.5 L 142.34375 37.980469 C 142.34375 43.777344 137.640625 48.480469 131.84375 48.480469 L 105.949219 48.480469 C 100.148438 48.480469 95.449219 43.777344 95.449219 37.980469 L 95.449219 10.5 C 95.449219 4.699219 100.148438 0 105.949219 0 Z M 105.949219 0 "/></clipPath><clipPath id="28bec1414c"><path d="M 95.449219 0 L 142.6875 0 L 142.6875 48.589844 L 95.449219 48.589844 Z M 95.449219 0 "/></clipPath><clipPath id="1b13ef50e9"><path d="M 105.945312 0 L 131.835938 0 C 137.632812 0 142.332031 4.699219 142.332031 10.496094 L 142.332031 37.972656 C 142.332031 43.769531 137.632812 48.46875 131.835938 48.46875 L 105.945312 48.46875 C 100.148438 48.46875 95.449219 43.769531 95.449219 37.972656 L 95.449219 10.496094 C 95.449219 4.699219 100.148438 0 105.945312 0 Z M 105.945312 0 "/></clipPath><clipPath id="ac131210b2"><path d="M 95.449219 48.480469 L 142.34375 48.480469 L 142.34375 96.289062 L 95.449219 96.289062 Z M 95.449219 48.480469 "/></clipPath><clipPath id="75f71fdb1b"><path d="M 105.949219 48.480469 L 131.84375 48.480469 C 137.640625 48.480469 142.34375 53.179688 142.34375 58.980469 L 142.34375 85.738281 C 142.34375 91.539062 137.640625 96.238281 131.84375 96.238281 L 105.949219 96.238281 C 100.148438 96.238281 95.449219 91.539062 95.449219 85.738281 L 95.449219 58.980469 C 95.449219 53.179688 100.148438 48.480469 105.949219 48.480469 Z M 105.949219 48.480469 "/></clipPath><clipPath id="d2f4791a0e"><path d="M 95.449219 48.480469 L 142.6875 48.480469 L 142.6875 96.394531 L 95.449219 96.394531 Z M 95.449219 48.480469 "/></clipPath><clipPath id="3cc5df5f92"><path d="M 105.945312 48.480469 L 131.835938 48.480469 C 137.632812 48.480469 142.335938 53.179688 142.335938 58.976562 L 142.335938 85.734375 C 142.335938 91.53125 137.632812 96.230469 131.835938 96.230469 L 105.945312 96.230469 C 100.148438 96.230469 95.449219 91.53125 95.449219 85.734375 L 95.449219 58.976562 C 95.449219 53.179688 100.148438 48.480469 105.945312 48.480469 Z M 105.945312 48.480469 "/></clipPath><clipPath id="424e2bf95d"><path d="M 95.449219 96.238281 L 142.34375 96.238281 L 142.34375 144 L 95.449219 144 Z M 95.449219 96.238281 "/></clipPath><clipPath id="5b50e1c63c"><path d="M 105.949219 96.238281 L 131.84375 96.238281 C 137.640625 96.238281 142.34375 100.941406 142.34375 106.738281 L 142.34375 133.5 C 142.34375 139.300781 137.640625 144 131.84375 144 L 105.949219 144 C 100.148438 144 95.449219 139.300781 95.449219 133.5 L 95.449219 106.738281 C 95.449219 100.941406 100.148438 96.238281 105.949219 96.238281 Z M 105.949219 96.238281 "/></clipPath><clipPath id="b0dfbfd133"><path d="M 95.449219 96.238281 L 142.6875 96.238281 L 142.6875 144 L 95.449219 144 Z M 95.449219 96.238281 "/></clipPath><clipPath id="e048aaf660"><path d="M 105.945312 96.238281 L 131.835938 96.238281 C 137.632812 96.238281 142.335938 100.941406 142.335938 106.738281 L 142.335938 133.496094 C 142.335938 139.292969 137.632812 143.992188 131.835938 143.992188 L 105.945312 143.992188 C 100.148438 143.992188 95.449219 139.292969 95.449219 133.496094 L 95.449219 106.738281 C 95.449219 100.941406 100.148438 96.238281 105.945312 96.238281 Z M 105.945312 96.238281 "/></clipPath><clipPath id="a63aa8aaae"><path d="M 48.550781 96.238281 L 95.449219 96.238281 L 95.449219 144 L 48.550781 144 Z M 48.550781 96.238281 "/></clipPath><clipPath id="2405b602d3"><path d="M 59.050781 96.238281 L 84.949219 96.238281 C 90.746094 96.238281 95.449219 100.941406 95.449219 106.738281 L 95.449219 133.5 C 95.449219 139.300781 90.746094 144 84.949219 144 L 59.050781 144 C 53.253906 144 48.550781 139.300781 48.550781 133.5 L 48.550781 106.738281 C 48.550781 100.941406 53.253906 96.238281 59.050781 96.238281 Z M 59.050781 96.238281 "/></clipPath><clipPath id="0abfad14fa"><path d="M 48.550781 96.238281 L 95.792969 96.238281 L 95.792969 144 L 48.550781 144 Z M 48.550781 96.238281 "/></clipPath><clipPath id="c0e2ccd34f"><path d="M 59.050781 96.238281 L 84.941406 96.238281 C 90.738281 96.238281 95.4375 100.941406 95.4375 106.738281 L 95.4375 133.496094 C 95.4375 139.292969 90.738281 143.992188 84.941406 143.992188 L 59.050781 143.992188 C 53.253906 143.992188 48.550781 139.292969 48.550781 133.496094 L 48.550781 106.738281 C 48.550781 100.941406 53.253906 96.238281 59.050781 96.238281 Z M 59.050781 96.238281 "/></clipPath><clipPath id="812d78c555"><path d="M 1.65625 95.519531 L 48.550781 95.519531 L 48.550781 144 L 1.65625 144 Z M 1.65625 95.519531 "/></clipPath><clipPath id="d543d2f30c"><path d="M 12.15625 95.519531 L 38.050781 95.519531 C 43.851562 95.519531 48.550781 100.222656 48.550781 106.019531 L 48.550781 133.5 C 48.550781 139.300781 43.851562 144 38.050781 144 L 12.15625 144 C 6.359375 144 1.65625 139.300781 1.65625 133.5 L 1.65625 106.019531 C 1.65625 100.222656 6.359375 95.519531 12.15625 95.519531 Z M 12.15625 95.519531 "/></clipPath><clipPath id="7beec0b9f4"><path d="M 1.65625 95.519531 L 48.898438 95.519531 L 48.898438 144 L 1.65625 144 Z M 1.65625 95.519531 "/></clipPath><clipPath id="98030f0195"><path d="M 12.15625 95.519531 L 38.046875 95.519531 C 43.84375 95.519531 48.542969 100.222656 48.542969 106.019531 L 48.542969 133.492188 C 48.542969 139.289062 43.84375 143.988281 38.046875 143.988281 L 12.15625 143.988281 C 6.359375 143.988281 1.65625 139.289062 1.65625 133.492188 L 1.65625 106.019531 C 1.65625 100.222656 6.359375 95.519531 12.15625 95.519531 Z M 12.15625 95.519531 "/></clipPath><clipPath id="1ffb5beb5b"><path d="M 1.65625 47.761719 L 48.550781 47.761719 L 48.550781 95.570312 L 1.65625 95.570312 Z M 1.65625 47.761719 "/></clipPath><clipPath id="2e54111121"><path d="M 12.15625 47.761719 L 38.050781 47.761719 C 43.851562 47.761719 48.550781 52.460938 48.550781 58.261719 L 48.550781 85.019531 C 48.550781 90.820312 43.851562 95.519531 38.050781 95.519531 L 12.15625 95.519531 C 6.359375 95.519531 1.65625 90.820312 1.65625 85.019531 L 1.65625 58.261719 C 1.65625 52.460938 6.359375 47.761719 12.15625 47.761719 Z M 12.15625 47.761719 "/></clipPath><clipPath id="0a993e8114"><path d="M 1.65625 47.761719 L 48.898438 47.761719 L 48.898438 95.679688 L 1.65625 95.679688 Z M 1.65625 47.761719 "/></clipPath><clipPath id="0c705eeeae"><path d="M 12.15625 47.761719 L 38.046875 47.761719 C 43.84375 47.761719 48.542969 52.460938 48.542969 58.257812 L 48.542969 85.015625 C 48.542969 90.8125 43.84375 95.515625 38.046875 95.515625 L 12.15625 95.515625 C 6.359375 95.515625 1.65625 90.8125 1.65625 85.015625 L 1.65625 58.257812 C 1.65625 52.460938 6.359375 47.761719 12.15625 47.761719 Z M 12.15625 47.761719 "/></clipPath></defs><g id="0fd0b505c1"><g clip-rule="nonzero" clip-path="url(#ff3f0f5299)"><g clip-rule="nonzero" clip-path="url(#39af918003)"><path style=" stroke:none;fill-rule:nonzero;fill:#ffff00;fill-opacity:1;" d="M 48.550781 48.121094 L 95.449219 48.121094 L 95.449219 96.664062 L 48.550781 96.664062 Z M 48.550781 48.121094 "/></g></g><g clip-rule="nonzero" clip-path="url(#23f47858f4)"><g clip-rule="nonzero" clip-path="url(#48051dd2a8)"><path style="fill:none;stroke-width:1;stroke-linecap:butt;stroke-linejoin:miter;stroke:#000000;stroke-opacity:1;stroke-miterlimit:4;" d="M 13.996906 0.00192665 L 48.517741 0.00192665 C 56.246908 0.00192665 62.512534 6.267552 62.512534 13.996719 L 62.512534 50.62693 C 62.512534 58.356097 56.246908 64.62693 48.517741 64.62693 L 13.996906 64.62693 C 6.267739 64.62693 0.00211349 58.356097 0.00211349 50.62693 L 0.00211349 13.996719 C 0.00211349 6.267552 6.267739 0.00192665 13.996906 0.00192665 Z M 13.996906 0.00192665 " transform="matrix(0.75,0,0,0.75,48.553102,48.119649)"/></g></g><g clip-rule="nonzero" clip-path="url(#7effc3ffd2)"><g clip-rule="nonzero" clip-path="url(#d0b7a89c05)"><path style=" stroke:none;fill-rule:nonzero;fill:#da251d;fill-opacity:1;" d="M 1.65625 0 L 48.550781 0 L 48.550781 48.542969 L 1.65625 48.542969 Z M 1.65625 0 "/></g></g><g clip-rule="nonzero" clip-path="url(#8c7ca9c1e7)"><g clip-rule="nonzero" clip-path="url(#cb41c31f67)"><path style="fill:none;stroke-width:1;stroke-linecap:butt;stroke-linejoin:miter;stroke:#000000;stroke-opacity:1;stroke-miterlimit:4;" d="M 13.997546 -0.00000266667 L 48.518382 -0.00000266667 C 56.247549 -0.00000266667 62.513174 6.265623 62.513174 13.99479 L 62.513174 50.630209 C 62.513174 58.359376 56.247549 64.625001 48.518382 64.625001 L 13.997546 64.625001 C 6.268379 64.625001 -0.00245447 58.359376 -0.00245447 50.630209 L -0.00245447 13.99479 C -0.00245447 6.265623 6.268379 -0.00000266667 13.997546 -0.00000266667 Z M 13.997546 -0.00000266667 " transform="matrix(0.75,0,0,0.75,1.658091,0.000002)"/></g></g><g clip-rule="nonzero" clip-path="url(#460ed1dc12)"><g clip-rule="nonzero" clip-path="url(#4516ab7d99)"><path style=" stroke:none;fill-rule:nonzero;fill:#da251d;fill-opacity:1;" d="M 48.550781 0 L 95.449219 0 L 95.449219 48.542969 L 48.550781 48.542969 Z M 48.550781 0 "/></g></g><g clip-rule="nonzero" clip-path="url(#608e5d6f53)"><g clip-rule="nonzero" clip-path="url(#1997c08ee3)"><path style="fill:none;stroke-width:1;stroke-linecap:butt;stroke-linejoin:miter;stroke:#000000;stroke-opacity:1;stroke-miterlimit:4;" d="M 13.996906 -0.00000266667 L 48.517741 -0.00000266667 C 56.246908 -0.00000266667 62.512534 6.265623 62.512534 13.99479 L 62.512534 50.630209 C 62.512534 58.359376 56.246908 64.625001 48.517741 64.625001 L 13.996906 64.625001 C 6.267739 64.625001 0.00211349 58.359376 0.00211349 50.630209 L 0.00211349 13.99479 C 0.00211349 6.265623 6.267739 -0.00000266667 13.996906 -0.00000266667 Z M 13.996906 -0.00000266667 " transform="matrix(0.75,0,0,0.75,48.553102,0.000002)"/></g></g><g clip-rule="nonzero" clip-path="url(#f8d2af5a15)"><g clip-rule="nonzero" clip-path="url(#034652ce98)"><path style=" stroke:none;fill-rule:nonzero;fill:#da251d;fill-opacity:1;" d="M 95.449219 0 L 142.34375 0 L 142.34375 48.542969 L 95.449219 48.542969 Z M 95.449219 0 "/></g></g><g clip-rule="nonzero" clip-path="url(#28bec1414c)"><g clip-rule="nonzero" clip-path="url(#1b13ef50e9)"><path style="fill:none;stroke-width:1;stroke-linecap:butt;stroke-linejoin:miter;stroke:#000000;stroke-opacity:1;stroke-miterlimit:4;" d="M 13.996263 -0.00000266667 L 48.517099 -0.00000266667 C 56.246266 -0.00000266667 62.511891 6.265623 62.511891 13.99479 L 62.511891 50.630209 C 62.511891 58.359376 56.246266 64.625001 48.517099 64.625001 L 13.996263 64.625001 C 6.267096 64.625001 0.00147085 58.359376 0.00147085 50.630209 L 0.00147085 13.99479 C 0.00147085 6.265623 6.267096 -0.00000266667 13.996263 -0.00000266667 Z M 13.996263 -0.00000266667 " transform="matrix(0.75,0,0,0.75,95.448116,0.000002)"/></g></g><g clip-rule="nonzero" clip-path="url(#ac131210b2)"><g clip-rule="nonzero" clip-path="url(#75f71fdb1b)"><path style=" stroke:none;fill-rule:nonzero;fill:#da251d;fill-opacity:1;" d="M 95.449219 48.480469 L 142.34375 48.480469 L 142.34375 96.289062 L 95.449219 96.289062 Z M 95.449219 48.480469 "/></g></g><g clip-rule="nonzero" clip-path="url(#d2f4791a0e)"><g clip-rule="nonzero" clip-path="url(#3cc5df5f92)"><path style="fill:none;stroke-width:1;stroke-linecap:butt;stroke-linejoin:miter;stroke:#000000;stroke-opacity:1;stroke-miterlimit:4;" d="M 13.997083 0.00139735 L 48.517918 0.00139735 C 56.247085 0.00139735 62.517919 6.267023 62.517919 13.99619 L 62.517919 49.673275 C 62.517919 57.402442 56.247085 63.668068 48.517918 63.668068 L 13.997083 63.668068 C 6.267915 63.668068 0.00229005 57.402442 0.00229005 49.673275 L 0.00229005 13.99619 C 0.00229005 6.267023 6.267915 0.00139735 13.997083 0.00139735 Z M 13.997083 0.00139735 " transform="matrix(0.75,0,0,0.75,95.447501,48.479421)"/></g></g><g clip-rule="nonzero" clip-path="url(#424e2bf95d)"><g clip-rule="nonzero" clip-path="url(#5b50e1c63c)"><path style=" stroke:none;fill-rule:nonzero;fill:#da251d;fill-opacity:1;" d="M 95.449219 96.238281 L 142.34375 96.238281 L 142.34375 144.050781 L 95.449219 144.050781 Z M 95.449219 96.238281 "/></g></g><g clip-rule="nonzero" clip-path="url(#b0dfbfd133)"><g clip-rule="nonzero" clip-path="url(#e048aaf660)"><path style="fill:none;stroke-width:1;stroke-linecap:butt;stroke-linejoin:miter;stroke:#000000;stroke-opacity:1;stroke-miterlimit:4;" d="M 13.997083 -0.00245316 L 48.517918 -0.00245316 C 56.247085 -0.00245316 62.517919 6.268381 62.517919 13.997548 L 62.517919 49.674633 C 62.517919 57.4038 56.247085 63.669426 48.517918 63.669426 L 13.997083 63.669426 C 6.267915 63.669426 0.00229005 57.4038 0.00229005 49.674633 L 0.00229005 13.997548 C 0.00229005 6.268381 6.267915 -0.00245316 13.997083 -0.00245316 Z M 13.997083 -0.00245316 " transform="matrix(0.75,0,0,0.75,95.447501,96.240121)"/></g></g><g clip-rule="nonzero" clip-path="url(#a63aa8aaae)"><g clip-rule="nonzero" clip-path="url(#2405b602d3)"><path style=" stroke:none;fill-rule:nonzero;fill:#da251d;fill-opacity:1;" d="M 48.550781 96.238281 L 95.449219 96.238281 L 95.449219 144.050781 L 48.550781 144.050781 Z M 48.550781 96.238281 "/></g></g><g clip-rule="nonzero" clip-path="url(#0abfad14fa)"><g clip-rule="nonzero" clip-path="url(#c0e2ccd34f)"><path style="fill:none;stroke-width:1;stroke-linecap:butt;stroke-linejoin:miter;stroke:#000000;stroke-opacity:1;stroke-miterlimit:4;" d="M 13.997722 -0.00245316 L 48.518557 -0.00245316 C 56.247724 -0.00245316 62.51335 6.268381 62.51335 13.997548 L 62.51335 49.674633 C 62.51335 57.4038 56.247724 63.669426 48.518557 63.669426 L 13.997722 63.669426 C 6.268555 63.669426 -0.00227885 57.4038 -0.00227885 49.674633 L -0.00227885 13.997548 C -0.00227885 6.268381 6.268555 -0.00245316 13.997722 -0.00245316 Z M 13.997722 -0.00245316 " transform="matrix(0.75,0,0,0.75,48.55249,96.240121)"/></g></g><g clip-rule="nonzero" clip-path="url(#812d78c555)"><g clip-rule="nonzero" clip-path="url(#d543d2f30c)"><path style=" stroke:none;fill-rule:nonzero;fill:#da251d;fill-opacity:1;" d="M 1.65625 95.519531 L 48.550781 95.519531 L 48.550781 144.066406 L 1.65625 144.066406 Z M 1.65625 95.519531 "/></g></g><g clip-rule="nonzero" clip-path="url(#7beec0b9f4)"><g clip-rule="nonzero" clip-path="url(#98030f0195)"><path style="fill:none;stroke-width:1;stroke-linecap:butt;stroke-linejoin:miter;stroke:#000000;stroke-opacity:1;stroke-miterlimit:4;" d="M 13.997546 -0.00249535 L 48.518382 -0.00249535 C 56.247549 -0.00249535 62.513174 6.268338 62.513174 13.997505 L 62.513174 50.627716 C 62.513174 58.356883 56.247549 64.622508 48.518382 64.622508 L 13.997546 64.622508 C 6.268379 64.622508 -0.00245447 58.356883 -0.00245447 50.627716 L -0.00245447 13.997505 C -0.00245447 6.268338 6.268379 -0.00249535 13.997546 -0.00249535 Z M 13.997546 -0.00249535 " transform="matrix(0.75,0,0,0.75,1.658091,95.521403)"/></g></g><g clip-rule="nonzero" clip-path="url(#1ffb5beb5b)"><g clip-rule="nonzero" clip-path="url(#2e54111121)"><path style=" stroke:none;fill-rule:nonzero;fill:#da251d;fill-opacity:1;" d="M 1.65625 47.761719 L 48.550781 47.761719 L 48.550781 95.570312 L 1.65625 95.570312 Z M 1.65625 47.761719 "/></g></g><g clip-rule="nonzero" clip-path="url(#0a993e8114)"><g clip-rule="nonzero" clip-path="url(#0c705eeeae)"><path style="fill:none;stroke-width:1;stroke-linecap:butt;stroke-linejoin:miter;stroke:#000000;stroke-opacity:1;stroke-miterlimit:4;" d="M 13.998362 0.000251159 L 48.519197 0.000251159 C 56.248364 0.000251159 62.51399 6.265877 62.51399 13.995044 L 62.51399 49.672129 C 62.51399 57.401296 56.248364 63.67213 48.519197 63.67213 L 13.998362 63.67213 C 6.269195 63.67213 -0.00163889 57.401296 -0.00163889 49.672129 L -0.00163889 13.995044 C -0.00163889 6.265877 6.269195 0.000251159 13.998362 0.000251159 Z M 13.998362 0.000251159 " transform="matrix(0.75,0,0,0.75,1.657479,47.76153)"/></g></g></g></svg>